<svg width="77" height="96" viewBox="0 0 77 96" fill="none" xmlns="http://www.w3.org/2000/svg">
<ellipse cx="37" cy="58.2886" rx="37" ry="37.1841" fill="#46A358" fill-opacity="0.13"/>
<g clip-path="url(#clip0_157_263)">
<path d="M28.1285 46.5876C40.7015 48.2594 53.391 48.5222 66.0223 47.3714C66.8787 47.2944 66.8877 45.9352 66.0223 46.0122C53.391 47.163 40.7015 46.9002 28.1285 45.2284C27.2765 45.1151 27.281 46.4789 28.1285 46.5876Z" fill="#727272"/>
<path d="M31.0299 92.4885C36.4644 93.1862 41.9348 93.526 47.4142 93.449C52.2344 93.3811 57.9245 93.594 62.4444 91.6775C63.229 91.3422 62.8838 90.0283 62.0856 90.3681C57.4492 92.3345 51.508 92.0671 46.5488 92.0989C41.3564 92.1351 36.1774 91.7908 31.0254 91.1293C30.1734 91.0205 30.1779 92.3798 31.0299 92.4885Z" fill="#727272"/>
<path d="M27.6042 45.541C21.3312 51.4219 18.4077 60.1889 19.0982 68.7384C19.4524 73.1559 20.69 77.451 22.5508 81.4562C24.2458 85.108 26.7433 90.341 30.4919 92.2394C31.2631 92.629 31.9447 91.4601 31.169 91.0659C27.6805 89.2989 25.3085 84.2109 23.7122 80.7721C21.8558 76.7623 20.6407 72.4083 20.3896 67.9818C19.9412 60.0031 22.7123 51.9792 28.5593 46.5015C29.196 45.908 28.241 44.9475 27.6042 45.541Z" fill="#727272"/>
<path d="M65.5478 47.1856C72.1661 51.3765 72.7893 60.4154 72.6279 67.5332C72.4486 75.471 71.4755 88.0484 62.0862 90.3681C61.2477 90.5765 61.6019 91.8859 62.4449 91.6775C72.2468 89.2581 73.6547 76.7759 73.9507 68.3759C74.2242 60.515 73.5337 50.638 66.2248 46.0121C65.4895 45.55 64.8169 46.7235 65.5478 47.1856Z" fill="#727272"/>
<path d="M32.5769 46.5966C27.6401 51.9655 25.4609 60.9318 26.2949 68.1221C26.7792 72.304 28.0885 76.4542 29.0615 80.5364C30.039 84.6276 31.0479 88.6872 33.2629 92.2982C33.7203 93.0412 34.8817 92.3571 34.4243 91.614C32.3437 88.225 31.3752 84.4373 30.456 80.5998C29.5682 76.9027 28.5324 73.2011 27.8464 69.4632C26.546 62.3454 28.5817 52.9396 33.5275 47.5571C34.1149 46.9137 33.1643 45.9532 32.5769 46.5966Z" fill="#727272"/>
<path d="M39.2399 47.163C35.5631 53.7054 33.6305 61.1358 33.7292 68.6659C33.7785 72.2814 34.2897 75.9015 35.2672 79.3811C36.4823 83.6989 38.3297 87.7947 39.1368 92.2303C39.2937 93.0911 40.5896 92.7241 40.4327 91.8678C39.7287 87.985 38.2355 84.3694 37.0473 80.6271C35.8949 76.9934 35.2044 73.2465 35.0878 69.4271C34.8547 61.8743 36.711 54.4122 40.4013 47.8471C40.8317 47.086 39.6704 46.4018 39.2399 47.163Z" fill="#727272"/>
<path d="M43.204 48.4634C44.482 56.0116 42.9305 63.5734 43.0606 71.1533C43.1189 74.6148 43.8856 77.8362 44.334 81.2433C44.8003 84.7818 44.0022 88.42 43.5672 91.9313C43.4596 92.7967 44.8048 92.7876 44.9124 91.9313C45.3519 88.3883 46.1455 84.7229 45.6792 81.1527C45.2039 77.5009 44.4013 74.0394 44.3968 70.3242C44.3878 62.8893 45.7509 55.5087 44.4999 48.1054C44.3519 47.2446 43.0561 47.6071 43.204 48.4634Z" fill="#727272"/>
<path d="M48.2481 47.8335C50.6112 54.6522 50.8981 61.8471 51.1358 69.0011C51.3958 76.7713 51.0102 84.4192 49.5754 92.0671C49.4139 92.9234 50.7098 93.2904 50.8712 92.4296C52.3285 84.6639 52.7455 76.8891 52.481 69.0011C52.2388 61.7293 51.9429 54.3985 49.544 47.471C49.2615 46.6555 47.9611 47.0089 48.2481 47.8335Z" fill="#727272"/>
<path d="M53.9072 47.8653C54.4049 49.4012 55.481 50.4252 56.3061 51.7753C57.2477 53.3158 57.7634 55.0601 58.0414 56.8362C58.6467 60.7145 58.3597 64.774 58.3508 68.6841C58.3418 72.9384 58.6646 77.4375 57.575 81.5922C56.6155 85.2394 54.4139 88.3837 53.6785 92.108C53.5081 92.9643 54.804 93.3268 54.9743 92.4705C55.7635 88.4834 58.2028 85.108 59.0637 81.1391C59.947 77.0795 59.687 72.8116 59.6959 68.6841C59.7049 64.8692 59.9336 60.9682 59.4359 57.176C59.2162 55.4996 58.8395 53.8414 58.1221 52.31C57.3239 50.6019 55.7859 49.3016 55.2075 47.5074C54.934 46.6783 53.6337 47.0317 53.9072 47.8653Z" fill="#727272"/>
<path d="M60.4488 47.6522C63.1213 50.1895 64.4082 54.2399 65.3722 57.7377C66.3766 61.3804 66.0403 65.2678 65.8161 68.9966C65.3632 76.5629 64.0988 84.1202 60.5071 90.8619C60.0946 91.6322 61.256 92.3208 61.6685 91.5461C65.4978 84.3558 66.7757 76.2729 67.2017 68.2082C67.4169 64.1487 67.5918 60.1843 66.3318 56.2742C65.2377 52.8807 64.0315 49.1927 61.3994 46.6872C60.7717 46.0937 59.8166 47.0542 60.4488 47.6522Z" fill="#727272"/>
<path d="M32.4697 51.0504C32.3307 51.4083 32.1783 51.7617 32.0124 52.1106C31.8016 52.5501 32.0482 53.1527 32.5953 53.1345C32.9854 53.121 33.2948 52.9443 33.5728 52.6769C33.6625 52.5909 33.7521 52.5002 33.8373 52.4142C33.9494 52.3009 33.8015 52.4821 33.8867 52.3779C33.8687 52.4051 33.7746 52.396 33.8598 52.4051C33.6445 52.1197 33.4293 51.8297 33.2096 51.5443C33.1513 51.8478 33.0885 52.1514 33.0302 52.4595C32.9585 52.8174 33.1334 53.1934 33.501 53.2977C33.8329 53.3883 34.2588 53.1844 34.3306 52.8219C34.3889 52.5184 34.4516 52.2148 34.5099 51.9067C34.5996 51.4446 34.3171 51.0912 33.8598 51.0459C33.4876 51.0096 33.1513 51.209 32.8867 51.4536C32.7926 51.5397 32.7119 51.6303 32.6177 51.7164C32.5863 51.7436 32.5594 51.7708 32.528 51.798C32.5415 51.7844 32.5549 51.7753 32.5684 51.7617C32.5011 51.798 32.5011 51.8025 32.5774 51.7708C32.5011 51.7889 32.5056 51.7934 32.5908 51.7708C32.7836 52.1106 32.9764 52.4504 33.1737 52.7947C33.3889 52.3417 33.5862 51.8795 33.7656 51.4129C33.8956 51.0685 33.6221 50.6653 33.2948 50.5747C32.9181 50.4705 32.6043 50.7061 32.4697 51.0504Z" fill="#727272"/>
<path d="M29.1375 59.1831C29.0747 59.5637 29.0119 59.9443 28.9492 60.3203C28.8998 60.6239 28.9805 60.9229 29.2585 61.086C29.5052 61.231 29.8773 61.2038 30.0746 60.9818C30.2047 60.8323 30.3347 60.6828 30.4647 60.5333C30.5499 60.4336 30.671 60.2478 30.7741 60.1934C30.662 60.2252 30.5499 60.2569 30.4333 60.2841C30.4558 60.2795 30.4827 60.2795 30.5051 60.275C30.393 60.2433 30.2809 60.2116 30.1643 60.1844C30.1822 60.198 30.2002 60.2116 30.2181 60.2252C30.106 60.0303 29.9939 59.8355 29.8863 59.6362C29.9222 60.0258 29.8146 60.4608 29.7697 60.8549C29.7069 61.4213 30.375 61.6297 30.7831 61.4439C31.3122 61.1947 31.6664 60.7371 31.8547 60.1889C31.4781 60.2886 31.1059 60.3883 30.7293 60.4879C30.7158 60.4019 30.7024 60.3158 30.6889 60.2297C30.4692 61.0769 31.7695 61.4394 31.9848 60.5922C32.0834 60.207 31.9937 59.7857 31.6799 59.5274C31.2763 59.1967 30.7338 59.3145 30.5544 59.8265C30.4737 60.053 30.3078 60.1708 30.1015 60.2705C30.4378 60.4653 30.7741 60.6601 31.1149 60.8595C31.1822 60.2523 31.505 59.174 30.68 58.943C29.9849 58.7481 29.4962 59.5818 29.1195 60.0213C29.4962 60.2433 29.8684 60.4608 30.245 60.6828C30.3078 60.3022 30.3706 59.9216 30.4333 59.5456C30.4916 59.1831 30.3392 58.8116 29.9625 58.7074C29.6442 58.6213 29.1958 58.8206 29.1375 59.1831Z" fill="#727272"/>
<path d="M28.5595 67.3701C28.6043 67.9047 28.6537 68.4393 28.6985 68.9694C28.7658 69.7261 29.7746 69.9028 30.0213 69.1507C30.1558 68.7338 30.3441 68.3578 30.5818 67.9863C30.1737 67.9319 29.7612 67.8775 29.3532 67.8232C29.5101 68.2173 29.6177 68.6206 29.676 69.0465C29.7433 69.5267 30.3217 69.6083 30.6625 69.4542C30.8329 69.3772 30.9719 69.2277 31.0615 69.0646C31.1019 68.9921 31.1333 68.906 31.1602 68.829C31.1736 68.7882 31.1826 68.7474 31.1961 68.7067C31.2185 68.6387 31.2095 68.6432 31.1781 68.7202C31.0795 68.7791 30.9808 68.838 30.8822 68.8969C30.9046 68.8879 30.9315 68.8834 30.9539 68.8743C30.8329 68.8743 30.7163 68.8743 30.5952 68.8743C30.5862 68.8698 30.5773 68.8652 30.5728 68.8562C30.4921 68.7746 30.4114 68.6931 30.3307 68.6115C30.3441 68.6296 30.3531 68.6478 30.3665 68.6659C30.3441 68.4892 30.3217 68.317 30.2993 68.1403C30.2948 68.163 30.2948 68.1856 30.2903 68.2037C30.241 68.5662 30.3755 68.9332 30.7611 69.0419C31.075 69.128 31.5413 68.9332 31.5906 68.5662C31.631 68.2717 31.6086 68.0044 31.3933 67.7824C31.214 67.6012 30.9405 67.5151 30.6894 67.5423C30.4293 67.574 30.2006 67.728 30.0616 67.95C30.0033 68.0452 29.9226 68.1766 29.9181 68.2853C29.9136 68.4439 29.8464 68.3306 29.9899 68.2672C30.3172 68.4031 30.649 68.539 30.9763 68.6749C30.918 68.2536 30.8104 67.8503 30.6535 67.4516C30.4383 66.917 29.7567 66.763 29.4249 67.2885C29.129 67.7552 28.9003 68.2536 28.7299 68.7746C29.1693 68.8335 29.6087 68.8969 30.0526 68.9558C30.0078 68.4212 29.9585 67.8866 29.9136 67.3565C29.8823 66.9895 29.6267 66.6769 29.2411 66.6769C28.8958 66.6905 28.5281 67.0031 28.5595 67.3701Z" fill="#727272"/>
<path d="M30.1781 76.9572C30.2229 77.741 30.613 78.4251 31.2901 78.8238C31.7385 79.0821 32.2945 78.7513 32.3035 78.2348C32.308 77.8361 32.3976 77.4691 32.5501 77.1021C32.1734 77.2018 31.8013 77.3015 31.4246 77.4012C31.6085 77.6277 31.8058 77.8271 32.0255 78.0128C32.3842 78.3164 33.0388 78.2575 33.1509 77.7138C33.1778 77.5915 33.2092 77.4873 33.2496 77.374C32.8729 77.4737 32.5008 77.5733 32.1241 77.673C32.1645 77.6504 32.1869 77.6775 32.1824 77.75C32.3259 78.0898 32.8191 78.1623 33.1016 77.9947C33.4469 77.7908 33.4872 77.4057 33.3437 77.0659C33.2855 76.93 33.1913 76.8076 33.0747 76.7125C32.6577 76.3818 32.1465 76.5041 31.9492 77.0115C31.9044 77.1248 31.873 77.2335 31.8506 77.3513C32.2272 77.2517 32.5994 77.152 32.9761 77.0523C32.7563 76.8665 32.5591 76.6627 32.3752 76.4407C32.0165 75.9966 31.4246 76.3274 31.2497 76.7397C31.0525 77.2154 30.9628 77.7183 30.9538 78.2348C31.2901 78.04 31.6264 77.8452 31.9672 77.6458C31.7071 77.4963 31.5367 77.2607 31.5188 76.9526C31.4739 76.0918 30.1288 76.0827 30.1781 76.9572Z" fill="#727272"/>
<path d="M32.9492 86.2768C33.1061 86.6846 33.2945 87.0607 33.55 87.4186C33.9491 87.9713 34.7428 87.7674 34.8055 87.0742C34.81 87.0335 34.8818 86.5306 34.8549 86.5079C34.6621 86.6302 34.4737 86.7526 34.2809 86.8749C34.3258 86.9383 34.3661 86.9972 34.4154 87.0561C34.5858 87.2736 34.7966 87.4594 35.0701 87.5364C35.2808 87.5907 35.5275 87.5636 35.7113 87.4458C35.8324 87.3642 35.9176 87.2691 35.9803 87.1377C36.0028 87.0833 36.0252 87.0289 36.0476 86.9746C36.1507 86.6484 35.9534 86.594 35.4602 86.8115C35.7292 87.6361 37.0296 87.2827 36.7561 86.449C36.5677 85.8781 36.0207 85.5066 35.4243 85.7331C35.1822 85.8283 34.9714 86.0095 34.8549 86.2451C34.819 86.3176 34.689 86.6302 34.7338 86.7208C34.9939 86.5713 35.2495 86.4173 35.5095 86.2678C35.4737 86.2225 35.4378 86.1817 35.4064 86.1364C35.1912 85.6969 34.5679 85.4477 34.1195 85.6108C33.4873 85.8374 33.5142 86.517 33.4648 87.0788C33.8819 86.9655 34.2989 86.8522 34.7203 86.7344C34.5365 86.4807 34.3706 86.2134 34.254 85.9189C33.9312 85.1124 32.6308 85.4613 32.9492 86.2768Z" fill="#727272"/>
<path d="M40.137 51.2361C39.6527 51.6031 39.2491 52.038 38.9846 52.5953C38.6393 53.3202 39.442 53.8911 40.0428 53.4199C40.1863 53.3067 40.3298 53.1934 40.4733 53.0801C40.536 53.0303 40.5988 52.9804 40.6661 52.9306C40.6975 52.9034 40.7288 52.8808 40.7602 52.8536C40.8723 52.772 40.814 52.7856 40.5854 52.8898C40.4733 52.8581 40.3612 52.8264 40.2446 52.7992C40.258 52.8083 40.2715 52.8173 40.2849 52.8264C40.2042 52.7448 40.1235 52.6633 40.0428 52.5817C40.0293 52.5228 40.0114 52.4685 39.998 52.4096C40.0024 52.3461 40.0024 52.3371 39.989 52.3914C39.9576 52.4141 39.9486 52.5681 39.9486 52.5908C39.9172 52.7992 39.9352 53.0031 40.0428 53.1934C40.1414 53.3656 40.3163 53.5196 40.5091 53.5694C40.5898 53.5921 40.693 53.6012 40.7782 53.6012C40.8589 53.6012 40.9306 53.5876 41.0024 53.5604C41.0965 53.5332 41.0651 53.5241 40.9037 53.5332C40.8051 53.4743 40.7064 53.4154 40.6078 53.3565C40.6212 53.3701 40.6347 53.3837 40.6481 53.3973C40.5898 53.2976 40.5315 53.1979 40.4733 53.0982C40.4777 53.1118 40.4822 53.13 40.4867 53.1435C40.5091 52.9668 40.5315 52.7947 40.554 52.618C40.545 52.6316 40.5405 52.6452 40.5315 52.6588C40.1235 53.429 41.2849 54.1177 41.6929 53.3429C41.8678 53.0167 41.8274 52.6497 41.5539 52.3914C41.4104 52.2555 41.2176 52.174 41.0203 52.1694C40.9082 52.1649 40.7782 52.2374 40.6795 52.2283C40.7916 52.2601 40.9037 52.2918 41.0203 52.319C41.0024 52.3054 40.9844 52.2918 40.971 52.2827C41.0517 52.3643 41.1324 52.4458 41.2131 52.5274C41.2041 52.5092 41.1952 52.4911 41.1862 52.473C41.2176 52.5863 41.249 52.6995 41.2759 52.8173C41.2669 52.7312 41.2804 52.7766 41.3118 52.6497C41.3476 52.4911 41.3521 52.319 41.3162 52.1558C41.24 51.8296 40.9979 51.594 40.675 51.5351C40.3387 51.4717 40.1101 51.6484 39.8545 51.8478C39.5989 52.0471 39.3433 52.251 39.0877 52.4503C39.442 52.7267 39.7917 52.9986 40.1459 53.2749C40.3074 52.9397 40.5136 52.6316 40.814 52.405C41.1055 52.1876 41.2535 51.816 41.0562 51.4762C40.8903 51.1908 40.4329 51.0186 40.137 51.2361Z" fill="#727272"/>
<path d="M37.5051 58.884C37.393 59.4277 37.2853 59.9714 37.1732 60.5196C37.0342 61.2128 37.7786 61.6115 38.2987 61.1811C38.4512 61.0542 38.5857 60.8956 38.6843 60.7235C38.7516 60.6057 38.8323 60.3656 38.8682 60.3067C38.7875 60.3882 38.7067 60.4698 38.626 60.5513C38.6485 60.5377 38.6664 60.5241 38.6888 60.506C38.5767 60.5377 38.4646 60.5694 38.348 60.5966C38.3749 60.5921 38.4018 60.5921 38.4287 60.5876C38.3166 60.5558 38.2045 60.5241 38.088 60.4969C37.9803 60.4471 37.9759 60.2704 38.0073 60.5015C38.0162 60.5604 38.0297 60.6102 38.0476 60.6646C38.1104 60.8685 38.2225 61.0497 38.3929 61.1766C38.5498 61.2944 38.7337 61.3578 38.9309 61.3533C39.052 61.3487 39.1641 61.317 39.2717 61.2626C39.33 61.24 39.3793 61.2083 39.4242 61.1675C39.5408 61.0859 39.5094 61.0905 39.3345 61.172C39.2224 61.1403 39.1103 61.1086 38.9937 61.0814C39.0117 61.0905 39.0161 61.0995 39.0296 61.1358C39.3166 61.9558 40.6169 61.6024 40.3254 60.7733C40.1999 60.4154 40.0161 60.0846 39.6708 59.9079C39.4914 59.8128 39.2672 59.7856 39.0699 59.8309C38.8727 59.8762 38.7561 60.0076 38.5857 60.0892C38.6978 60.0575 38.8099 60.0257 38.9265 59.9986C38.904 59.9986 38.8771 59.9986 38.8547 59.9986C38.9668 60.0303 39.0789 60.062 39.1955 60.0892C39.3166 60.3021 39.3524 60.3338 39.3031 60.1843C39.2941 60.1254 39.2852 60.0665 39.2762 60.0076C39.2448 59.8898 39.1955 59.7675 39.1327 59.6678C38.9668 59.405 38.6933 59.2329 38.3839 59.2374C38.079 59.2419 37.801 59.4186 37.6575 59.6859C37.5364 59.9125 37.5454 60.0484 37.3391 60.2206C37.7158 60.4426 38.088 60.6601 38.4646 60.8821C38.5767 60.3384 38.6843 59.7947 38.7964 59.251C38.9758 58.3902 37.6799 58.0277 37.5051 58.884Z" fill="#727272"/>
<path d="M36.9849 65.8297C36.8459 66.5592 36.7562 67.2931 36.7338 68.0316C36.7159 68.5482 37.3167 68.8744 37.7472 68.6206C37.9445 68.5028 38.0879 68.3443 38.1956 68.1404C38.2359 68.0634 38.3525 67.8867 38.3301 67.8187C38.3256 67.8096 38.2852 67.8685 38.3032 67.8595C38.1911 67.8912 38.079 67.9229 37.9624 67.9501C37.9534 67.9546 37.94 67.9546 37.931 67.9592C37.8503 67.8776 37.7696 67.796 37.6889 67.7145C37.7651 67.8142 37.7561 67.8051 37.7651 67.9093C37.8144 68.4666 38.478 68.8381 38.913 68.3896C38.9623 68.3352 39.0116 68.2854 39.0654 68.2355C38.9713 68.2808 38.8726 68.2718 38.7785 68.2174C38.7202 68.1177 38.6619 68.0181 38.6036 67.9184C38.6126 67.9456 38.6215 67.9727 38.635 67.9999C38.7605 68.3443 39.0923 68.5799 39.4645 68.4757C39.7918 68.385 40.0609 67.9863 39.9353 67.6375C39.5856 66.677 38.5677 66.7993 37.9624 67.4291C38.3435 67.5876 38.7291 67.7507 39.1103 67.9093C39.0565 67.2524 38.7336 66.541 37.9624 66.5909C37.6485 66.609 37.3705 66.7948 37.2046 67.0621C37.1463 67.1572 37.106 67.266 37.0611 67.3702C37.0118 67.4834 36.9266 67.5242 37.0656 67.4427C37.4019 67.6375 37.7382 67.8323 38.079 68.0316C38.0969 67.4109 38.1642 66.7993 38.2807 66.1876C38.4467 65.3359 37.1508 64.9734 36.9849 65.8297Z" fill="#727272"/>
<path d="M37.6529 73.5908C37.8054 74.198 37.9892 74.7915 38.2045 75.376C38.3793 75.8517 38.9398 76.051 39.3299 75.675C39.5003 75.5074 39.6169 75.3125 39.6752 75.0769C39.6976 74.9818 39.7155 74.8685 39.72 74.7734C39.7335 74.4834 39.7021 74.7235 39.729 74.7099C39.6169 74.7417 39.5048 74.7734 39.3882 74.8006C39.4196 74.8006 39.4465 74.796 39.4779 74.796C39.3658 74.7643 39.2537 74.7326 39.1371 74.7054C39.0474 74.6646 39.0743 74.6239 39.1461 74.7507C39.182 74.8141 39.2133 74.8685 39.2582 74.9274C39.3972 75.1086 39.5676 75.231 39.7963 75.2627C39.998 75.2899 40.1908 75.24 40.3612 75.1222C40.4554 75.0543 40.5406 74.9773 40.6034 74.8776C40.6303 74.8232 40.6572 74.7688 40.6796 74.7145C40.7693 74.5378 40.693 74.5831 40.4509 74.8549C40.3298 74.8549 40.2133 74.8549 40.0922 74.8549C40.0384 74.8096 39.9891 74.7598 39.9353 74.7145C39.9039 74.6012 39.8725 74.4879 39.8456 74.3701C39.8456 74.3973 39.8456 74.4245 39.8456 74.4517C39.8321 75.3261 41.1773 75.3261 41.1908 74.4517C41.1997 73.9941 40.8859 73.6362 40.4509 73.5455C40.2177 73.4957 39.9846 73.5455 39.7918 73.686C39.6976 73.754 39.6214 73.831 39.5586 73.9261C39.5452 73.9533 39.5317 73.985 39.5138 74.0122C39.3972 74.2387 39.4286 74.2342 39.6124 73.9986C39.7245 73.9669 39.8366 73.9352 39.9532 73.908C39.9308 73.9125 39.9084 73.9125 39.8859 73.9171C39.998 73.9488 40.1101 73.9805 40.2267 74.0077C40.4195 74.1028 40.3209 74.0711 40.2491 73.9442C40.1953 73.8446 40.1236 73.7494 40.0429 73.6769C39.7873 73.4459 39.451 73.387 39.1326 73.5002C38.877 73.5908 38.6842 73.7902 38.5542 74.0213C38.4825 74.1527 38.4466 74.284 38.4197 74.429C38.4062 74.4925 38.4197 74.6737 38.3793 74.7145C38.756 74.8141 39.1281 74.9138 39.5048 75.0135C39.2896 74.429 39.1057 73.831 38.9533 73.2284C38.7336 72.3857 37.4377 72.7436 37.6529 73.5908Z" fill="#727272"/>
<path d="M38.3298 80.0834C38.5719 80.8038 38.8813 81.497 39.2624 82.1494C39.5359 82.6161 40.1413 82.5617 40.4238 82.1494C40.5 82.0362 40.5538 81.9184 40.5897 81.787C40.5941 81.7462 40.5986 81.71 40.6076 81.6692C40.6793 81.4064 40.6166 81.4155 40.4103 81.7009C40.2892 81.7009 40.1727 81.7009 40.0516 81.7009C39.8633 81.642 39.9485 81.6556 40.0471 81.7643C40.1188 81.8413 40.2085 81.9229 40.3027 81.9773C40.4955 82.086 40.7242 82.1268 40.9439 82.1087C41.4461 82.0724 41.7914 81.7371 41.9573 81.2795C42.2577 80.4595 40.9573 80.1015 40.6614 80.9171C40.7466 80.6905 40.9573 80.8174 40.9215 80.7087C40.8946 80.6316 40.7376 80.5274 40.6659 80.4867C40.4462 80.3598 40.1816 80.3326 39.944 80.4142C39.7243 80.4867 39.5494 80.6543 39.4373 80.8582C39.3386 81.0394 39.3655 81.3112 39.2579 81.4653C39.6435 81.4653 40.0336 81.4653 40.4193 81.4653C40.0919 80.908 39.8274 80.3371 39.6211 79.7255C39.3521 78.9009 38.0517 79.2543 38.3298 80.0834Z" fill="#727272"/>
<path d="M40.1006 87.8355C40.1051 88.2116 40.1589 88.5876 40.2755 88.941C40.3607 89.1993 40.5625 89.3896 40.836 89.4258C41.0826 89.4575 41.392 89.3442 41.5041 89.0996C41.5803 88.9365 41.6566 88.7734 41.7328 88.6148C41.7687 88.5378 41.8045 88.4653 41.8359 88.3883C41.8539 88.352 41.8718 88.3112 41.8897 88.275C41.9256 88.207 41.9256 88.207 41.8897 88.275C41.7911 88.3339 41.6924 88.3928 41.5938 88.4517C41.6072 88.4472 41.6252 88.4381 41.6386 88.4336C41.5176 88.4336 41.401 88.4336 41.2799 88.4336C41.2575 88.4245 41.2306 88.4109 41.2082 88.4019C41.1275 88.3203 41.0467 88.2387 40.966 88.1572C40.8988 88.0439 40.9616 88.1391 40.9885 88.2161C41.0109 88.2886 41.0378 88.3565 41.0602 88.429C41.1095 88.5695 41.1588 88.7145 41.2037 88.8549C41.3203 89.2038 41.6655 89.4303 42.0332 89.3307C42.365 89.24 42.6206 88.8413 42.504 88.4925C42.3112 87.9307 42.1498 87.0064 41.3696 87.1106C40.7643 87.1921 40.5625 87.9352 40.3383 88.4154C40.7463 88.4698 41.1588 88.5242 41.5669 88.5786C41.4817 88.3112 41.4413 88.0938 41.4368 87.831C41.4324 87.4776 41.1319 87.1332 40.7643 87.1514C40.41 87.1695 40.0961 87.4549 40.1006 87.8355Z" fill="#727272"/>
<path d="M46.2798 88.66C46.2439 88.9681 46.208 89.2807 46.1722 89.5888C46.1363 89.8788 46.4053 90.1733 46.6654 90.2458C46.9703 90.3319 47.2528 90.1823 47.4232 89.9332C47.5443 89.7565 47.6653 89.5843 47.7864 89.4076C47.8402 89.326 47.8985 89.249 47.9523 89.1675C47.9747 89.1357 47.9971 89.104 48.0196 89.0723C48.1182 88.9364 48.1048 88.9454 47.9837 89.0995C47.8716 89.1312 47.7595 89.1629 47.6429 89.1901C47.6653 89.1901 47.6833 89.1901 47.7057 89.1901C47.5936 89.1584 47.4815 89.1267 47.3649 89.0995C47.2304 88.8639 47.1855 88.8186 47.2304 88.9636C47.2438 89.0179 47.2528 89.0768 47.2663 89.1312C47.2887 89.2445 47.3111 89.3532 47.338 89.4665C47.3873 89.7021 47.4097 89.9785 47.5308 90.1914C47.6474 90.3908 47.8402 90.5629 48.0644 90.6264C48.4097 90.7215 48.6922 90.5448 48.8939 90.273C49.1136 89.9785 48.9388 89.5118 48.6518 89.3442C48.3065 89.1403 47.9523 89.2943 47.7326 89.5888C47.7236 89.6024 47.7147 89.616 47.7057 89.6251C47.8985 89.5118 48.0913 89.3985 48.2886 89.2898C48.2751 89.2898 48.2617 89.2943 48.2482 89.2943C48.3603 89.326 48.4724 89.3577 48.589 89.3849C48.7056 89.4438 48.7773 89.7746 48.7101 89.4393C48.6922 89.3442 48.6697 89.2535 48.6518 89.1584C48.6159 88.9908 48.5845 88.8231 48.5487 88.6555C48.468 88.3021 48.2572 87.9577 47.8895 87.8535C47.4815 87.7403 47.1586 87.9759 46.93 88.284C46.7013 88.5966 46.4861 88.9183 46.2663 89.2354C46.6833 89.3487 47.1004 89.462 47.5218 89.5798C47.5577 89.2717 47.5936 88.959 47.6295 88.651C47.6698 88.284 47.2887 87.9713 46.9569 87.9713C46.5578 87.9804 46.3246 88.2976 46.2798 88.66Z" fill="#727272"/>
<path d="M46.926 76.2503C46.7601 76.9753 46.6794 77.7183 46.6929 78.4613C46.7018 79.1002 47.6345 79.4309 47.9484 78.8057C48.0829 78.5338 48.2174 78.2665 48.3519 77.9947C48.4506 77.7953 48.5223 77.5461 48.7017 77.4057C48.603 77.4646 48.5044 77.5235 48.4057 77.5824C48.4057 77.5778 48.4057 77.5733 48.4102 77.5688C48.195 77.4012 47.9797 77.238 47.76 77.0704C47.8452 77.3921 47.9304 77.7138 48.0156 78.0355C48.1232 78.4387 48.6389 78.6833 49.0021 78.4432C49.0649 78.4024 49.1276 78.3571 49.1904 78.3164C49.9078 77.8361 49.2352 76.6581 48.5133 77.1429C48.4506 77.1837 48.3878 77.229 48.325 77.2698C48.6523 77.4057 48.9841 77.5416 49.3115 77.6775C49.2263 77.3558 49.1411 77.0342 49.0559 76.7125C48.9797 76.427 48.7017 76.2096 48.4057 76.2141C47.4596 76.2322 47.1368 77.4193 46.787 78.1261C47.204 78.2393 47.621 78.3526 48.0425 78.4704C48.0335 77.8406 48.0874 77.2335 48.2264 76.6173C48.4147 75.761 47.1188 75.3986 46.926 76.2503Z" fill="#727272"/>
<path d="M45.6429 66.0833C45.6743 66.618 45.7012 67.1481 45.7326 67.6827C45.7685 68.3532 46.6204 68.6115 46.9881 68.027C47.2482 67.6102 47.5082 67.1979 47.7683 66.7811C47.3827 66.7811 46.9926 66.7811 46.607 66.7811C46.7011 66.9442 46.7594 67.0937 46.7684 67.284C46.7998 67.882 47.4769 68.1675 47.9163 67.7642C48.2571 67.4561 48.4768 67.0846 48.6427 66.6542C48.3154 66.7901 47.9835 66.926 47.6562 67.062C47.6562 67.071 47.6562 67.0801 47.6517 67.0846C47.5934 66.9849 47.5351 66.8853 47.4769 66.7856C47.4903 66.8128 47.4993 66.8445 47.5127 66.8717C47.6517 67.2115 47.9566 67.4516 48.3423 67.3474C48.6561 67.2613 48.9521 66.8536 48.8131 66.5092C48.6965 66.2328 48.5754 66.0652 48.3333 65.884C47.9522 65.5985 47.4858 65.9248 47.3468 66.2917C47.2661 66.5002 47.1271 66.6542 46.9657 66.8037C47.3468 66.9623 47.7324 67.1254 48.1136 67.284C48.0912 66.8581 47.9835 66.4639 47.7683 66.0969C47.5038 65.6484 46.876 65.6665 46.607 66.0969C46.3469 66.5137 46.0868 66.926 45.8268 67.3429C46.2438 67.4561 46.6608 67.5694 47.0823 67.6872C47.0509 67.1526 47.024 66.6225 46.9926 66.0879C46.9388 65.2134 45.5936 65.2089 45.6429 66.0833Z" fill="#727272"/>
<path d="M46.0067 57.0989C45.9663 57.4432 45.9484 57.7876 45.9573 58.1319C45.9708 58.6031 46.5358 59.038 46.9707 58.7209C47.1949 58.5578 47.3339 58.372 47.4101 58.1047C47.4281 58.0413 47.446 57.9688 47.455 57.9054C47.4639 57.8465 47.4998 57.8419 47.4505 57.8872C47.2173 58.1047 46.9707 58.4173 46.5985 57.9643C46.6389 58.0141 46.6254 58.0096 46.5985 57.9507C46.6299 58.0186 46.6524 58.0957 46.6837 58.1636C46.7375 58.2814 46.8183 58.3856 46.9079 58.4762C47.1859 58.7526 47.5985 58.807 47.9348 58.6122C48.2531 58.4309 48.3562 57.996 48.1769 57.6834C47.9886 57.3617 47.576 57.2575 47.2577 57.4387C47.2442 57.4478 47.2263 57.4568 47.2128 57.4659C47.3249 57.4342 47.437 57.4025 47.5536 57.3753C47.5895 57.3707 47.9123 57.552 47.8854 57.561C47.9034 57.5973 47.9034 57.5973 47.8899 57.5656C47.8765 57.5293 47.863 57.4931 47.8451 57.4568C47.7913 57.3254 47.7285 57.2031 47.6299 57.0944C47.4101 56.8633 47.0694 56.75 46.76 56.8497C46.4685 56.9403 46.2757 57.1759 46.1815 57.4614C46.1591 57.5248 46.1502 57.5882 46.1322 57.6562C46.1232 57.6879 46.1143 57.7151 46.1098 57.7468C46.0919 57.8057 46.0919 57.8057 46.1143 57.7468C46.1412 57.6607 46.1995 57.5927 46.2892 57.5474C46.6254 57.7423 46.9617 57.9371 47.3025 58.1364C47.2936 57.7921 47.3115 57.4478 47.3518 57.1034C47.3967 56.75 47.0111 56.4102 46.6793 56.4238C46.2802 56.4419 46.056 56.7228 46.0067 57.0989Z" fill="#727272"/>
<path d="M45.5935 50.1306C45.468 50.6289 45.5308 51.1409 45.7953 51.5804C46.1092 52.115 46.8311 51.9519 47.0239 51.4173C47.0957 51.2179 46.988 51.5396 47.0553 51.3357C47.0822 51.2587 47.1046 51.295 47.0374 51.3267C46.8311 51.4354 46.5531 51.3629 46.4903 51.0911C46.5755 51.449 46.9746 51.6619 47.3199 51.5668C47.6786 51.4671 47.8759 51.0911 47.7907 50.7286C47.6696 50.2121 47.1136 49.9357 46.6159 50.0535C46.1271 50.1759 45.8895 50.6063 45.7281 51.0503C46.1361 50.9959 46.5486 50.9416 46.9567 50.8872C46.8894 50.7694 46.8804 50.7784 46.867 50.638C46.8759 50.7105 46.8715 50.6199 46.8715 50.5972C46.8804 50.3979 46.8446 50.6788 46.8894 50.4839C46.9746 50.1396 46.7773 49.7318 46.4186 49.6458C46.0733 49.5733 45.6877 49.759 45.5935 50.1306Z" fill="#727272"/>
<path d="M26.3664 48.5268C26.1691 48.7896 25.9897 49.0659 25.8328 49.3559C25.5682 49.8316 26.0166 50.5747 26.5906 50.3527C26.7968 50.2756 26.9986 50.1941 27.2049 50.1171C26.9313 49.9585 26.6533 49.7999 26.3753 49.6413C26.4112 49.7455 26.4291 49.8135 26.4247 49.9177C26.4202 50.262 26.7385 50.629 27.0972 50.5973C27.4335 50.5701 27.7205 50.4886 28.0209 50.3436C28.3483 50.185 28.4335 49.7093 28.2631 49.4148C28.0658 49.075 27.6712 49.0116 27.3439 49.1701C27.2766 49.2019 27.151 49.2336 27.0972 49.2381C27.3214 49.4646 27.5456 49.6912 27.7698 49.9177C27.7743 49.7002 27.7429 49.4828 27.6712 49.2789C27.5591 48.9572 27.2049 48.6672 26.8417 48.8031C26.6354 48.8802 26.4336 48.9617 26.2274 49.0387C26.4785 49.3695 26.734 49.7048 26.9851 50.0355C27.1466 49.7455 27.3214 49.4692 27.5187 49.2064C27.7384 48.9119 27.5636 48.4452 27.2766 48.2776C26.9403 48.0828 26.5861 48.2323 26.3664 48.5268Z" fill="#727272"/>
<path d="M22.56 56.1565C22.3044 56.7229 22.0847 57.3028 21.9053 57.9009C21.7932 58.2724 22.0398 58.6167 22.3761 58.7391C22.6631 58.8433 22.9725 58.7798 23.2236 58.6167C23.3312 58.5442 23.403 58.4718 23.4837 58.3766C23.7931 58.0051 23.3671 58.4853 23.116 58.1727C23.0577 58.073 22.9994 57.9734 22.9411 57.8737C22.9052 57.7468 22.9322 58.0096 22.9322 58.0051C22.9456 58.1093 22.9725 58.218 23.0263 58.3132C23.1294 58.4899 23.3178 58.6349 23.5106 58.6892C23.8738 58.7889 24.3401 58.6485 24.497 58.2769C24.6405 57.9417 24.5957 57.5475 24.2549 57.3481C23.9724 57.1805 23.4792 57.253 23.3357 57.5928C23.3492 57.5747 23.3626 57.5565 23.3805 57.543C23.4792 57.4841 23.5778 57.4252 23.6765 57.3663C23.811 57.407 23.9455 57.4478 24.08 57.4886C24.1383 57.5883 24.1966 57.6879 24.2549 57.7876C24.2908 57.9145 24.2639 57.6018 24.2549 57.5701C24.219 57.4342 24.1563 57.3119 24.0666 57.2122C23.9007 57.0355 23.6855 56.9313 23.4433 56.9177C23.2236 56.9086 23.0218 56.9721 22.8425 57.0989C22.7573 57.1578 22.6855 57.2258 22.6183 57.3074C22.3403 57.6336 22.5331 57.3572 22.7393 57.4297C22.8963 57.7106 23.0532 57.987 23.2102 58.2679C23.3536 57.7831 23.524 57.3119 23.7303 56.8497C23.8783 56.5145 23.8245 56.1203 23.4882 55.9209C23.1922 55.7442 22.708 55.8213 22.56 56.1565Z" fill="#727272"/>
<path d="M21.0714 64.1714C20.9279 64.9507 20.9279 65.7073 21.0803 66.4866C21.1566 66.8717 21.5691 67.0167 21.9099 66.9623C22.1072 66.9306 22.291 66.8173 22.43 66.6678C22.4883 66.6044 22.5421 66.5274 22.5914 66.4549C22.6183 66.4141 22.6407 66.3733 22.6632 66.328C22.7035 66.2646 22.6901 66.2691 22.6138 66.3326C22.4928 66.3326 22.3762 66.3326 22.2551 66.3326C22.2865 66.3416 22.3179 66.3507 22.3493 66.3597C22.2506 66.3008 22.152 66.2419 22.0533 66.183C22.004 66.0788 21.9995 66.0834 22.0444 66.1966C22.0668 66.251 22.0892 66.3054 22.1116 66.3597C22.1834 66.4957 22.282 66.6044 22.4076 66.6859C22.708 66.8898 22.9815 66.8762 23.3044 66.7267C23.6362 66.5772 23.7169 66.0879 23.5465 65.7979C23.3492 65.4536 22.9591 65.4037 22.6273 65.5533C22.6049 65.5623 22.578 65.5759 22.5555 65.585C22.7304 65.5623 22.9008 65.5397 23.0757 65.517C23.0488 65.508 23.0219 65.5034 22.995 65.4944C23.0936 65.5533 23.1923 65.6122 23.2909 65.6711C23.3178 65.7617 23.3178 65.7707 23.2954 65.7028C23.273 65.6303 23.2461 65.5623 23.2147 65.4989C23.1743 65.4219 23.1295 65.3449 23.0667 65.2814C22.8784 65.0775 22.6183 64.9824 22.3448 65.0096C22.1072 65.0322 21.8964 65.15 21.7305 65.3222C21.6498 65.4038 21.5825 65.4989 21.5242 65.5986C21.5108 65.6258 21.4929 65.6529 21.4794 65.6801C21.3942 65.807 21.4166 65.7934 21.5511 65.6439C21.8247 65.8025 22.1027 65.961 22.3807 66.1196C22.2775 65.594 22.2731 65.0549 22.3717 64.5293C22.439 64.1669 22.2731 63.7953 21.9009 63.6911C21.5691 63.605 21.1386 63.8089 21.0714 64.1714Z" fill="#727272"/>
<path d="M22.0305 73.9804C22.2188 74.361 22.4026 74.7416 22.591 75.1222C22.7569 75.4574 23.2098 75.5345 23.5102 75.3668C23.7523 75.2309 23.9182 75.0134 23.9944 74.7416C24.0303 74.6193 24.0527 74.4652 24.0393 74.3384C24.0258 74.1934 24.0886 74.2341 24.0124 74.3021C23.9137 74.361 23.8151 74.4199 23.7164 74.4788C23.7075 74.4833 23.6985 74.4833 23.6895 74.4879C23.5774 74.4561 23.4653 74.4244 23.3488 74.3973C23.5819 74.5332 23.694 74.7506 24.0348 74.7506C24.4384 74.7506 24.528 74.5105 24.7702 74.2704C24.6715 74.3293 24.5729 74.3882 24.4742 74.4471C24.3442 74.3655 24.2142 74.284 24.0841 74.1979C24.1379 74.5604 24.5908 74.7597 24.9136 74.6736C25.2993 74.5649 25.4383 74.2024 25.3845 73.8354C25.3217 73.4277 24.9406 73.1241 24.546 73.0833C24.0841 73.038 23.7837 73.2918 23.564 73.6723C23.6447 73.5908 23.7254 73.5092 23.8061 73.4277C23.7837 73.4458 23.7568 73.4639 23.7344 73.482C23.8465 73.4503 23.9586 73.4186 24.0752 73.3914C24.0527 73.3914 24.0258 73.3914 24.0034 73.3914C24.1155 73.4231 24.2276 73.4549 24.3442 73.482C24.2635 73.4367 24.0527 73.2057 23.8734 73.1558C23.6178 73.0833 23.3488 73.1377 23.138 73.2963C22.9497 73.4367 22.8196 73.6451 22.7524 73.8672C22.7076 74.0076 22.7569 74.293 22.6851 74.3927C22.7658 74.3112 22.8466 74.2296 22.9273 74.1481C22.9004 74.1617 22.8735 74.1798 22.8421 74.1934C23.147 74.2749 23.4564 74.3565 23.7613 74.438C23.573 74.0574 23.3891 73.6769 23.2008 73.2963C22.8062 72.5079 21.6449 73.1966 22.0305 73.9804Z" fill="#727272"/>
<path d="M26.1832 84.0749C26.1608 84.6594 26.7617 84.9901 27.2683 84.8315C27.5105 84.7545 27.6853 84.5824 27.8019 84.3649C27.8199 84.3286 27.8378 84.2879 27.8557 84.2516C27.9544 84.093 27.8557 84.1383 27.5508 84.3966C27.4118 84.3785 27.4746 84.3785 27.5732 84.4328C27.8916 84.6095 28.3086 84.5099 28.4925 84.1882C28.6718 83.8756 28.5687 83.4361 28.2503 83.2594C27.9185 83.0736 27.5419 82.9649 27.1742 83.1189C26.9859 83.2005 26.8289 83.3364 26.7213 83.5176C26.6899 83.5675 26.6585 83.6264 26.6406 83.6853C26.6316 83.7034 26.6227 83.7215 26.6137 83.7396C26.8468 83.4769 27.089 83.4542 27.3446 83.6717C27.4029 83.7714 27.4611 83.871 27.5194 83.9707C27.5239 84.0069 27.5284 84.0432 27.5329 84.0794C27.5463 83.7215 27.2145 83.3817 26.8603 83.3998C26.4792 83.4134 26.1967 83.6943 26.1832 84.0749Z" fill="#727272"/>
<path d="M51.0371 50.407C51.1178 50.8148 51.2568 51.1954 51.4317 51.5714C51.5976 51.9203 52.0505 51.9656 52.3509 51.8161C52.5213 51.73 52.6603 51.5759 52.75 51.4083C52.7769 51.3585 52.7948 51.3041 52.8217 51.2497C52.9652 50.9371 52.8172 51.4083 52.472 51.3721C52.3599 51.3404 52.2478 51.3086 52.1312 51.2815C52.055 51.2452 52.2433 51.3675 52.2433 51.3675C52.315 51.4219 52.3644 51.4536 52.4496 51.4899C52.6244 51.5669 52.8038 51.5805 52.9921 51.5533C53.3957 51.4853 53.6333 51.2226 53.7858 50.8556C53.9248 50.5158 53.6333 50.108 53.315 50.0174C52.9293 49.9086 52.6289 50.1533 52.4854 50.4931C52.6424 50.1986 52.8397 50.1352 53.0728 50.3028C53.0549 50.2847 53.037 50.2666 53.0145 50.253C52.9293 50.1669 52.7679 50.0763 52.6513 50.0446C52.4361 49.9857 52.2029 50.0219 52.0146 50.1352C51.8577 50.2303 51.7456 50.3798 51.6694 50.5429C51.6514 50.5837 51.629 50.629 51.6111 50.6743C51.5617 50.8193 51.5886 50.6834 51.6694 50.6471C51.9743 50.7287 52.2837 50.8103 52.5886 50.8918C52.463 50.6245 52.3868 50.3436 52.3285 50.0536C52.2612 49.6912 51.8308 49.4873 51.499 49.5779C51.1358 49.673 50.9699 50.0446 51.0371 50.407Z" fill="#727272"/>
<path d="M52.5982 58.1862C52.6834 58.6166 52.773 59.0471 52.8582 59.4775C53.0017 60.1888 53.9478 60.0574 54.1541 59.4775C54.2214 59.2827 54.3379 59.1558 54.4859 59.0199C54.1317 58.9746 53.7819 58.9293 53.4277 58.884C53.5443 59.1558 53.6653 59.4322 53.7819 59.704C53.9164 60.0166 54.4366 60.1526 54.7011 59.9487C54.8626 59.8264 54.9926 59.7176 55.0957 59.5364C55.1316 59.473 55.1719 59.3959 55.1944 59.3234C55.2033 59.2917 55.2168 59.26 55.2347 59.2328C55.3423 59.0335 55.1361 58.97 54.6115 59.0425C54.5621 59.405 54.9567 59.7221 55.284 59.7221C55.6876 59.7221 55.9073 59.4095 55.9566 59.0425C56.0329 58.4762 55.5082 57.9642 54.9657 57.9642C54.6922 57.9642 54.4455 58.0865 54.2617 58.2814C54.1765 58.372 54.1182 58.4717 54.0599 58.5804C54.0241 58.6529 53.8851 58.8794 54.0241 58.7752C54.329 58.8568 54.6384 58.9383 54.9433 59.0199C54.8267 58.748 54.7056 58.4717 54.589 58.1998C54.4052 57.7739 53.8178 57.8011 53.5308 58.0639C53.208 58.3584 53.0017 58.7118 52.8538 59.1196C53.2842 59.1196 53.7192 59.1196 54.1496 59.1196C54.0644 58.6891 53.9747 58.2587 53.8895 57.8283C53.7236 56.9675 52.4233 57.3299 52.5982 58.1862Z" fill="#727272"/>
<path d="M53.7774 68.5798C53.737 68.9196 53.7774 69.2685 53.8671 69.5947C53.9792 69.9889 54.4903 70.2562 54.8535 70.0025C55.0912 69.8348 55.2347 69.6536 55.3378 69.3818C55.3647 69.3138 55.3871 69.2413 55.4095 69.1688C55.4499 69.0238 55.4095 69.2187 55.293 69.2368C55.1719 69.2368 55.0553 69.2368 54.9342 69.2368C54.8221 69.1915 54.7504 69.1235 54.7325 69.0238C54.719 68.9785 54.7235 68.9921 54.7504 69.0646C54.7639 69.1054 54.7773 69.1507 54.7908 69.1915C54.867 69.3999 54.9746 69.5675 55.145 69.708C55.5127 70.007 55.9297 69.9572 56.2884 69.6763C56.5754 69.4497 56.5216 68.9514 56.2884 68.7158C56.0059 68.4303 55.6248 68.4892 55.3378 68.7158C55.3243 68.7293 55.3064 68.7384 55.293 68.752C55.3916 68.6931 55.4902 68.6342 55.5889 68.5753C55.571 68.5798 55.553 68.5844 55.5351 68.5889C55.6562 68.5889 55.7727 68.5889 55.8938 68.5889C55.9745 68.6025 56.0911 68.8517 56.0418 68.7022C56.0059 68.5844 55.9611 68.462 55.8983 68.3578C55.71 68.0497 55.3781 67.873 55.0239 67.9093C54.71 67.941 54.4545 68.1404 54.2841 68.4031C54.2123 68.5164 54.163 68.6433 54.1226 68.7701C54.1092 68.8109 54.0823 68.8698 54.0778 68.9106C54.0733 68.9695 54.0644 68.897 54.1765 68.82C54.5038 68.9559 54.8356 69.0918 55.1629 69.2277C55.1001 69.0057 55.0912 68.8064 55.1181 68.5753C55.1584 68.2083 54.7773 67.8957 54.4455 67.8957C54.0554 67.9002 53.8222 68.2128 53.7774 68.5798Z" fill="#727272"/>
<path d="M53.4048 76.5811C53.3689 77.0251 53.4048 77.4601 53.472 77.8995C53.5528 78.4115 54.2747 78.5429 54.5975 78.1986C54.7141 78.0762 54.8352 77.9539 54.9607 77.8406C55.0728 77.741 55.1894 77.6413 55.2791 77.5779C54.9517 77.4419 54.6199 77.306 54.2926 77.1701C54.333 77.2879 54.333 77.152 54.3195 77.2788C54.3285 77.1837 54.2657 77.3649 54.3105 77.2879C54.1357 77.6096 54.2343 78.0309 54.5527 78.2167C54.8621 78.3979 55.297 78.2982 55.4719 77.972C55.6647 77.6141 55.7275 77.1973 55.5929 76.8076C55.4629 76.4361 54.9787 76.1235 54.6065 76.3999C54.2657 76.6536 53.9473 76.9254 53.6559 77.2335C54.0325 77.3332 54.4047 77.4329 54.7814 77.5325C54.7365 77.2381 54.7365 76.8937 54.7589 76.572C54.7858 76.2186 54.4316 75.8788 54.0863 75.8924C53.6918 75.9196 53.4362 76.2005 53.4048 76.5811Z" fill="#727272"/>
<path d="M52.9744 85.4569C52.7322 85.8692 52.5484 86.3222 52.4452 86.7934C52.3645 87.1514 52.5529 87.5274 52.9161 87.6316C53.2927 87.7358 53.6156 87.5048 53.7456 87.1559C53.7859 87.0426 53.9205 86.798 53.9922 86.7028C53.6738 86.7028 53.36 86.7028 53.0416 86.7028C52.9609 86.6031 52.9385 86.4944 52.9699 86.3675C52.9116 86.73 53.064 87.097 53.4407 87.2057C53.7635 87.2963 54.2074 87.097 54.2702 86.73C54.333 86.3539 54.2657 86.0232 53.9967 85.7423C53.7635 85.4976 53.2703 85.4569 53.0461 85.7423C52.786 86.0685 52.5977 86.3993 52.4497 86.7934C52.8802 86.9158 53.3151 87.0336 53.7456 87.1559C53.8308 86.7753 53.9429 86.4763 54.1402 86.1455C54.324 85.8284 54.2119 85.398 53.898 85.2167C53.5797 85.0264 53.1627 85.1397 52.9744 85.4569Z" fill="#727272"/>
<path d="M57.8979 88.1708C57.6199 88.5378 57.4899 88.9908 57.4675 89.4484C57.454 89.7158 57.6468 89.974 57.88 90.0692C58.1445 90.1779 58.4001 90.1145 58.6153 89.9287C58.9472 89.6433 59.279 89.3533 59.6108 89.0679C59.2566 89.0225 58.9068 88.9772 58.5526 88.9319C58.5257 88.8912 58.5391 88.8323 58.5436 88.787C58.5481 88.7552 58.6198 88.6465 58.5481 88.7598C58.3553 89.0724 58.4808 89.5073 58.7902 89.6886C59.1131 89.8789 59.5166 89.7565 59.7094 89.4439C59.9381 89.0769 59.9336 88.6103 59.7139 88.2387C59.4763 87.84 58.9875 87.8174 58.6557 88.1028C58.3239 88.3882 57.9921 88.6782 57.6603 88.9637C58.0414 89.1222 58.427 89.2853 58.8082 89.4439C58.8171 89.24 58.7723 89.5345 58.8171 89.3397C58.8351 89.2717 58.853 89.1993 58.8754 89.1313C58.8395 89.2264 58.9292 89.0361 58.9292 89.0316C58.9651 88.9682 59.0055 88.9093 59.0503 88.8549C59.27 88.5604 59.0951 88.0937 58.8082 87.9261C58.4719 87.7222 58.1221 87.8763 57.8979 88.1708Z" fill="#727272"/>
<path d="M60.382 79.2724C60.2878 79.7889 60.234 80.3099 60.2296 80.84C60.2206 81.506 61.1577 81.7779 61.4851 81.1843C61.6868 80.8128 61.9245 80.4911 62.2204 80.1921C61.9469 80.2284 61.6779 80.2646 61.4043 80.2963C61.3909 80.2873 61.373 80.2737 61.3595 80.2646C61.3012 80.1649 61.2429 80.0652 61.1846 79.9656C61.1712 79.9248 61.216 79.7979 61.1712 79.9429C61.1398 80.0335 61.1219 80.1785 61.1174 80.2646C61.1084 80.4821 61.1712 80.695 61.2967 80.8717C61.4402 81.0665 61.6779 81.1979 61.9245 81.1979C62.059 81.1979 62.2159 81.1572 62.3325 81.0937C62.3549 81.0801 62.3729 81.0711 62.3953 81.0575C62.5029 80.9895 62.4715 80.985 62.3011 81.0439C62.189 81.0122 62.0769 80.9805 61.9604 80.9533C61.781 80.8627 61.7675 80.7585 61.7855 80.6271C61.7362 80.9895 61.8752 81.3565 62.2563 81.4652C62.5702 81.5513 63.032 81.3565 63.0858 80.9895C63.1396 80.5999 63.1217 80.2057 62.8258 79.9112C62.6778 79.7662 62.4536 79.6801 62.2473 79.6847C62.1128 79.6892 61.9559 79.7345 61.8393 79.7979C61.8079 79.8161 61.6599 79.8795 61.7451 79.8614C61.8662 79.8614 61.9828 79.8614 62.1038 79.8614C62.0859 79.8568 62.0635 79.8478 62.0456 79.8432C62.1442 79.9021 62.2428 79.961 62.3415 80.0199C62.3863 80.396 62.4267 80.4911 62.467 80.3054C62.485 80.2601 62.4939 80.2148 62.5029 80.1649C62.5253 80.0607 62.5343 79.952 62.5253 79.8432C62.5074 79.5442 62.3549 79.2588 62.0814 79.1274C61.8124 78.9915 61.4895 79.0096 61.2653 79.2316C60.8932 79.6076 60.5748 80.0335 60.3192 80.4957C60.7362 80.6089 61.1532 80.7222 61.5747 80.84C61.5792 80.4368 61.6106 80.0335 61.6824 79.6348C61.7451 79.2724 61.5837 78.9008 61.2115 78.7966C60.8797 78.706 60.4448 78.9099 60.382 79.2724Z" fill="#727272"/>
<path d="M61.288 69.9164C61.0952 70.3831 61.0907 70.9132 61.2387 71.3935C61.445 72.0549 62.3148 72.0232 62.5346 71.3935C62.6467 71.0672 62.8484 70.809 63.104 70.5825C62.7229 70.4239 62.3373 70.2608 61.9561 70.1022C61.9696 70.3333 61.9875 70.5643 62.001 70.7909C62.0279 71.1896 62.2879 71.4252 62.6736 71.4705C62.8888 71.4977 63.0861 71.4252 63.2654 71.3074C63.3417 71.2575 63.4089 71.1986 63.4672 71.1307C63.4896 71.099 63.5165 71.0718 63.539 71.0446C63.6197 70.9585 63.5524 70.9766 63.3327 71.099C63.2206 71.0672 63.1085 71.0355 62.9919 71.0083C62.956 70.9676 62.9157 70.9268 62.8798 70.886C62.8484 70.7727 62.817 70.6595 62.7901 70.5417C62.7901 70.5598 62.7901 70.5779 62.7946 70.596C62.826 70.4828 62.8574 70.3695 62.8843 70.2517C62.8753 70.2653 62.8664 70.2834 62.8574 70.297C62.4 71.0446 63.5659 71.7287 64.0187 70.9812C64.2878 70.5417 64.0636 69.9708 63.5928 69.7986C63.3461 69.708 63.095 69.7261 62.8664 69.853C62.7722 69.9028 62.6915 69.9753 62.6153 70.0524C62.5973 70.0705 62.5839 70.0931 62.5659 70.1113C62.4763 70.2019 62.5121 70.2019 62.6736 70.1113C62.8978 70.3378 63.122 70.5643 63.3461 70.7909C63.3327 70.5598 63.3148 70.3287 63.3013 70.1022C63.261 69.4996 62.6018 69.2232 62.1534 69.6219C61.723 70.007 61.427 70.4873 61.2387 71.031C61.6692 71.031 62.1041 71.031 62.5346 71.031C62.4494 70.7546 62.4763 70.5417 62.5839 70.2789C62.7229 69.9391 62.4314 69.5313 62.1131 69.4407C61.7274 69.332 61.427 69.5766 61.288 69.9164Z" fill="#727272"/>
<path d="M60.727 58.005C60.7629 58.3856 60.8032 58.7707 60.8391 59.1513C60.8705 59.4865 61.0678 59.7765 61.422 59.8173C61.7449 59.8581 62.0767 59.6632 62.1619 59.3325C62.2336 59.0425 62.3323 58.7797 62.4758 58.5215C62.0901 58.5215 61.7 58.5215 61.3144 58.5215C61.3817 58.6484 61.4489 58.7752 61.5117 58.8975C61.7583 59.3642 62.413 59.3098 62.673 58.8975C62.6955 58.8613 62.7269 58.8296 62.7269 58.816C62.7986 58.7526 62.7493 58.7571 62.5879 58.8296C62.5161 58.8704 62.4444 58.8794 62.3726 58.8658C62.2919 58.7843 62.2112 58.7027 62.1305 58.6212C62.126 58.603 62.1215 58.5849 62.117 58.5668C62.3771 59.3959 63.6775 59.0425 63.4129 58.2043C63.2784 57.7785 62.9107 57.5111 62.4623 57.5247C62.0274 57.5383 61.7225 57.8645 61.5072 58.2089C61.8928 58.2089 62.2829 58.2089 62.6686 58.2089C62.6013 58.082 62.534 57.9552 62.4713 57.8328C62.2381 57.3888 61.5476 57.3933 61.3099 57.8328C61.1171 58.1908 60.9647 58.5713 60.8615 58.97C61.301 59.0289 61.7404 59.0924 62.1843 59.1513C62.1484 58.7707 62.1081 58.3856 62.0722 58.005C62.0363 57.638 61.7897 57.3254 61.3996 57.3254C61.0633 57.3254 60.6911 57.638 60.727 58.005Z" fill="#727272"/>
<path d="M57.3957 50.407C57.5661 50.8419 57.7768 51.2044 58.0728 51.5668C58.4136 51.9837 59.0548 51.7118 59.1983 51.2678C59.3014 50.9416 59.3462 50.5882 59.3148 50.2484C58.8978 50.3617 58.4808 50.4749 58.0593 50.5927C58.1894 50.8465 58.3732 51.0775 58.5929 51.2587C58.8754 51.4898 59.27 51.5351 59.5435 51.2587C59.7812 51.0186 59.826 50.5293 59.5435 50.2982C59.4628 50.2348 59.3866 50.1623 59.3238 50.0853C59.2565 49.9992 59.3642 50.1532 59.3059 50.0581C59.2745 50.0083 59.2476 49.9584 59.2207 49.9086C59.0817 49.6367 58.7364 49.5144 58.4584 49.5914C58.1938 49.6639 57.9383 49.9539 57.9652 50.2484C57.9921 50.5338 57.9831 50.6471 57.8979 50.9054C58.2746 50.8057 58.6467 50.706 59.0234 50.6063C58.9651 50.5384 58.9068 50.4523 58.8395 50.3345C58.8081 50.2801 58.7768 50.2212 58.7454 50.1668C58.7364 50.1532 58.6647 49.9811 58.6871 50.049C58.5526 49.7092 58.2387 49.4691 57.8576 49.5733C57.5437 49.6594 57.2612 50.0626 57.3957 50.407Z" fill="#727272"/>
<path d="M64.189 49.8815C64.2428 50.1669 64.3504 50.4433 64.4984 50.697C64.6509 50.9552 64.9692 51.0912 65.2562 51.0096C65.5611 50.9235 65.7225 50.6562 65.7494 50.3527C65.7808 50.0355 65.8122 49.7138 65.8436 49.3967C65.5073 49.5915 65.171 49.7863 64.8302 49.9857C65.0365 50.1397 65.2427 50.2983 65.449 50.4523C65.7405 50.6698 66.2023 50.5022 66.3682 50.2077C66.57 49.8633 66.4175 49.4963 66.1261 49.2789C65.9198 49.1248 65.7136 48.9662 65.5073 48.8122C65.319 48.6717 65.0185 48.6989 64.8302 48.8122C64.6105 48.9436 64.5208 49.152 64.4984 49.4012C64.467 49.7183 64.4356 50.04 64.4042 50.3572C64.8213 50.2439 65.2383 50.1306 65.6597 50.0128C65.5521 49.8316 65.5252 49.7455 65.4849 49.5235C65.4176 49.1611 64.9872 48.9572 64.6553 49.0478C64.2877 49.1475 64.1262 49.519 64.189 49.8815Z" fill="#727272"/>
<path d="M67.1748 58.0367C67.2376 58.4128 67.3273 58.7753 67.4484 59.1377C67.5874 59.5681 68.0358 59.7494 68.4348 59.5455C68.6814 59.4186 68.8384 59.183 68.9012 58.9157C68.9325 58.7934 68.937 58.662 68.946 58.5306C68.946 58.4853 68.9505 58.44 68.955 58.3947C68.946 58.585 68.8204 58.7073 68.5738 58.7707C68.4617 58.739 68.3496 58.7073 68.233 58.6801C68.7622 58.9429 69.1747 59.1196 69.78 58.9837C70.623 58.7934 70.2687 57.4795 69.4213 57.6743C69.2105 57.7241 69.0895 57.5973 68.9101 57.5067C68.5962 57.3526 68.2375 57.3753 67.964 57.5927C67.7577 57.7558 67.6636 57.9824 67.6277 58.2406C67.6143 58.3403 67.6098 58.4355 67.6008 58.5351C67.5918 58.6212 67.5963 58.6257 67.6053 58.5578C67.5605 58.7118 67.6098 58.6484 67.7577 58.3766C68.0851 58.5125 68.4169 58.6484 68.7442 58.7843C68.6276 58.4219 68.538 58.0594 68.4707 57.6833C68.4079 57.3209 67.9685 57.117 67.6412 57.2076C67.2645 57.3028 67.1121 57.6743 67.1748 58.0367Z" fill="#727272"/>
<path d="M68.7396 67.8685C68.6947 68.2128 68.6454 68.5572 68.6006 68.9015C68.5602 69.205 68.6275 69.5041 68.91 69.6672C69.1431 69.8076 69.5467 69.794 69.726 69.563C69.8247 69.4316 69.9233 69.3228 70.0803 69.2685C69.7978 69.051 69.5108 68.8335 69.2283 68.6115C69.2373 68.8834 69.2418 69.1552 69.2507 69.4271C69.2642 69.8801 69.6677 70.1882 70.1027 70.084C70.3179 70.0342 70.4973 69.9254 70.6677 69.7895L70.8336 69.6581C70.8201 69.64 70.6049 69.6536 70.5556 69.5992C70.4973 69.4995 70.439 69.3999 70.3807 69.3002C70.3897 69.3228 70.3941 69.3455 70.4031 69.3682C70.6856 70.1882 71.9859 69.8348 71.699 69.0057C71.542 68.5572 71.1833 68.3034 70.708 68.317C70.5152 68.3216 70.3134 68.385 70.1475 68.4847C70.013 68.5662 69.8875 68.7339 69.735 68.7701C70.0175 68.9876 70.3045 69.205 70.587 69.4271C70.578 69.1552 70.5735 68.8834 70.5645 68.6115C70.5556 68.1947 70.1386 67.8096 69.7126 67.9546C69.3404 68.086 69.0086 68.2853 68.7665 68.6025C69.1431 68.8245 69.5153 69.0419 69.8919 69.2639C69.9368 68.9196 69.9861 68.5753 70.0309 68.2309C70.0803 67.8685 69.9457 67.5015 69.5601 67.3928C69.2552 67.3067 68.7889 67.5015 68.7396 67.8685Z" fill="#727272"/>
<path d="M66.8078 79.1228C66.7136 79.5079 66.6194 79.893 66.5298 80.2781C66.4446 80.6315 66.6374 81.0212 67.0006 81.1163C67.3234 81.2024 67.6328 81.139 67.8974 80.926C68.1081 80.7538 68.1843 80.4865 68.3771 80.3189C68.2785 80.3778 68.1798 80.4367 68.0812 80.4956C68.1126 80.482 68.144 80.4684 68.1798 80.4548C68.0588 80.4548 67.9422 80.4548 67.8211 80.4548C67.8525 80.4593 67.8839 80.4684 67.9198 80.4729C67.7853 80.3687 67.6507 80.2645 67.5162 80.1603C67.5072 80.1059 67.5117 80.1195 67.5252 80.2101C67.5566 80.2872 67.588 80.3642 67.6238 80.4412C67.7135 80.5907 67.8525 80.6949 68.005 80.7629C68.1664 80.8354 68.3457 80.8445 68.5206 80.8082C68.5789 80.8037 68.6372 80.7856 68.691 80.7629C68.9556 80.6768 68.9018 80.6496 68.5296 80.6859C68.4489 80.6043 68.3682 80.5228 68.2875 80.4412C68.2964 80.4548 68.3099 80.4729 68.3188 80.4865C68.2875 80.3733 68.2561 80.26 68.2292 80.1422C68.2292 80.1603 68.2292 80.183 68.2247 80.2011C68.1843 81.0755 69.5295 81.0755 69.5699 80.2011C69.5878 79.8296 69.3367 79.5169 68.9914 79.4082C68.83 79.3584 68.6507 79.3538 68.4847 79.3946C68.4265 79.4082 68.1978 79.4535 68.265 79.4626C68.3771 79.4943 68.4892 79.526 68.6058 79.5532C68.5834 79.5396 68.5655 79.5215 68.543 79.5079C68.6237 79.5894 68.7045 79.671 68.7852 79.7525C68.7538 79.6891 68.682 79.449 68.5699 79.3312C68.3906 79.15 68.0633 79.0684 67.8211 79.1364C67.6238 79.1907 67.4534 79.3085 67.3189 79.458C67.2472 79.5396 67.1844 79.6302 67.1306 79.7254C67.1127 79.7571 67.0992 79.7888 67.0813 79.816C66.9557 79.9881 67.0499 79.9836 67.3638 79.7979C67.5207 80.0788 67.6776 80.3551 67.8346 80.636C67.9287 80.2509 68.0229 79.8658 68.1126 79.4807C68.3099 78.6335 67.014 78.271 66.8078 79.1228Z" fill="#727272"/>
<path d="M65.381 87.2963C65.4797 87.3733 65.5783 87.4503 65.677 87.5273C65.9639 87.7539 66.4303 87.5726 66.5962 87.2827C66.798 86.9338 66.6455 86.5759 66.354 86.3539C66.2554 86.2768 66.1568 86.1998 66.0581 86.1228C65.7711 85.8963 65.3048 86.0775 65.1389 86.3675C64.9371 86.7163 65.0941 87.0697 65.381 87.2963Z" fill="#727272"/>
</g>
<g clip-path="url(#clip1_157_263)">
<path d="M35.2998 44.96C35.859 40.3049 32.6259 36.8293 29.1809 34.1488C27.1743 32.5852 25.2128 31.2808 23.9052 29.0426C23.2378 27.8945 22.5975 26.5989 22.2232 25.3257C21.4928 22.8463 22.7553 18.9507 25.8802 21.8098C27.6793 23.4583 28.0942 25.5848 29.4695 27.4164C30.2451 28.4529 31.4355 29.0068 32.6755 28.3457C36.4046 26.3621 33.5187 19.4823 32.6845 16.7482C31.6745 13.4379 31.1424 10.2526 32.8423 7.06735C33.4015 6.02197 34.0282 4.94532 34.7452 4.0027C35.2096 3.39513 35.8003 2.73842 36.4632 2.31848C37.834 1.44287 38.6592 1.44287 40.1742 1.90748C41.7885 2.40336 41.802 2.48824 42.1312 4.02503C42.2845 4.73535 42.3477 5.51715 42.3837 6.24981C42.4604 7.8 42.3341 9.3636 42.014 10.887C41.4143 13.7774 39.6872 16.3328 39.3085 19.2679C39.0289 21.4256 39.2228 28.2831 42.8121 27.6398C47.0191 26.8848 46.717 20.1926 50.9106 19.2991C54.4007 18.5531 56.1051 22.3549 54.6261 24.9638C53.8235 26.3845 52.4888 27.4835 51.2037 28.4529C48.913 30.1818 46.1128 31.0842 43.8627 32.831C39.791 36.0028 41.1437 40.9885 42.8166 45.0762C43.1413 45.8669 44.4489 45.5184 44.1198 44.7188C42.9925 41.9624 41.5766 38.5895 43.1007 35.6946C44.5121 33.0141 48.2366 32.076 50.64 30.4945C53.8866 28.3591 58.5446 24.3384 55.794 20.1077C53.4943 16.5651 49.0393 17.7489 46.938 20.7153C46.3022 21.6133 45.8107 22.6006 45.247 23.5432C44.99 23.9721 44.733 24.4054 44.4309 24.8075C44.2144 25.0666 43.998 25.3212 43.7816 25.5803C42.0726 25.9556 41.1888 25.5044 41.1302 24.2178C39.4167 20.6081 41.4909 16.9091 42.6543 13.5808C43.52 11.1059 43.8898 8.47012 43.7049 5.85668C43.5787 4.04737 43.3893 1.59923 41.6713 0.51811C40.1607 -0.43345 37.8385 0.111575 36.355 0.853167C34.1455 1.96109 32.7927 4.31095 31.6745 6.4017C28.8021 11.7715 31.7015 16.5025 32.7702 21.9126C32.91 22.6318 33.2662 24.2088 33.0272 25.0085C32.2967 25.6697 31.5662 26.3264 30.8312 26.9876C30.4119 26.4559 30.0962 25.8752 29.8753 25.2363C29.4514 24.3027 29.005 23.4315 28.3873 22.6006C27.4133 21.2871 25.5736 19.1294 23.6932 19.2366C21.867 19.3438 20.7938 21.2559 20.5999 22.8507C20.3114 25.2095 21.5875 27.7247 22.7418 29.7261C25.9433 35.2702 34.8669 37.3118 33.9471 44.9689C33.8479 45.8133 35.2006 45.8088 35.2998 44.96Z" fill="#46A358"/>
<path d="M46.9871 22.6855C47.9611 17.7936 46.1214 13.3218 45.7381 8.49248C45.5081 5.60653 46.7481 0.991685 50.6891 2.30511C53.6246 3.28347 54.7384 6.75019 54.54 9.52446C54.3957 11.5527 53.4127 17.5033 57.3537 16.9493C60.7356 16.4758 62.4806 10.8915 64.122 8.52375C65.5288 6.49555 68.6356 3.53365 71.3682 4.36012C75.697 5.66907 72.9238 10.8155 70.9308 12.8393C67.5715 16.2479 63.9912 19.2634 61.0287 23.0607C59.3107 25.2632 57.8226 28.8818 61.6329 29.8691C63.0984 30.2488 64.5097 29.744 65.8309 29.1454C66.8951 28.6629 67.9096 28.0866 69.0415 27.7694C71.1066 27.1886 73.501 27.6443 72.1347 30.1863C68.9377 36.1413 61.6194 31.7499 56.8983 34.2472C52.8941 36.3692 51.9607 41.06 52.3395 45.1745C52.4162 46.0277 53.7734 46.0367 53.6923 45.1745C53.4262 42.3064 53.6562 39.206 55.6582 36.9321C58.2465 33.9925 61.7005 35.0647 65.1275 34.9977C68.6266 34.9307 73.1313 33.2509 73.8572 29.3777C74.6509 25.1336 69.7719 25.9556 67.2693 26.9787C66.1646 27.4299 65.132 28.1313 63.9777 28.4618C63.0623 28.7254 61.6149 28.8684 60.8934 28.0151C60.1945 27.1842 60.7581 25.7859 61.191 25.08C62.7737 22.4889 65.1996 20.1256 67.355 17.9947C70.3266 15.0551 75.3949 11.9369 74.9575 7.14332C74.6238 3.47557 71.2059 2.13088 68.0539 3.50684C66.1601 4.33331 64.5954 5.64674 63.3599 7.28628C61.7456 9.42617 60.8844 12.3657 58.959 14.251C58.2645 14.93 57.5837 16.373 56.0325 14.9568C55.3426 14.3269 55.55 12.6472 55.6222 11.785C55.7169 10.6547 55.9604 9.55126 55.9243 8.41207C55.8657 6.48661 55.2209 4.53435 53.9628 3.04223C51.3024 -0.102832 46.7346 0.0356578 44.967 3.98039C43.9119 6.33919 44.3763 9.03751 44.8182 11.4857C45.4675 15.0998 46.419 18.6469 45.684 22.3281C45.5171 23.1724 46.8203 23.5343 46.9871 22.6855Z" fill="#46A358"/>
<path d="M46.6855 31.1602C46.0497 35.7661 45.0081 40.2782 43.5562 44.7009C43.2856 45.5229 44.5933 45.8758 44.8593 45.0583C46.3113 40.6356 47.3529 36.1235 47.9887 31.5176C48.1059 30.6687 46.8028 30.3069 46.6855 31.1602Z" fill="#46A358"/>
<path d="M30.5063 44.1917C30.3304 40.6445 27.8458 38.25 24.987 36.4273C23.1338 35.2434 21.1046 34.2561 19.5129 32.7149C18.8275 32.0537 17.5514 30.7715 17.4838 29.744C17.2538 26.3175 21.4789 28.9846 22.4168 29.7753C23.0751 30.3337 24.0356 29.3866 23.3728 28.8282C21.8983 27.5818 19.2514 25.9601 17.2268 26.8983C15.5944 27.6533 15.865 29.5251 16.4918 30.8743C19.1296 36.606 28.8063 37.2627 29.1535 44.1917C29.1941 45.0494 30.5513 45.0539 30.5063 44.1917Z" fill="#46A358"/>
<path d="M60.8393 45.5185C62.5257 42.9989 64.7488 40.9394 67.4723 39.5545C69.9523 38.2947 73.0276 38.0758 75.2236 36.2933C77.7442 34.2472 77.8749 29.2303 73.704 29.3598C72.8337 29.3866 72.8337 30.7269 73.704 30.7C75.3498 30.9234 76.0172 31.8258 75.7151 33.4028C75.3769 34.3097 74.8042 35.0245 73.9971 35.5427C73.0096 36.2352 71.8101 36.5524 70.6738 36.9098C69.2264 37.3654 67.815 37.8435 66.4758 38.5582C63.6891 40.0504 61.412 42.2394 59.6669 44.8439C59.1845 45.5632 60.3568 46.2333 60.8393 45.5185Z" fill="#46A358"/>
<path d="M64.5144 33.7289C58.7832 34.8011 56.6684 40.4524 55.3112 45.3978C55.0812 46.2332 56.3889 46.5861 56.6143 45.7552C57.8499 41.2565 59.631 36.0028 64.8751 35.0244C65.7274 34.8591 65.3666 33.5681 64.5144 33.7289Z" fill="#46A358"/>
<path d="M34.2938 13.3307C33.6219 10.6547 34.4606 7.72412 36.6341 5.92822C37.0714 5.54849 37.5675 5.2581 38.1131 5.05707C39.6146 5.37426 40.3135 6.16946 40.2098 7.44267C40.2369 8.18426 40.0926 8.91692 39.9167 9.63171C39.5605 11.0747 38.9337 12.4462 38.4693 13.8579C37.2744 17.4944 35.5564 23.4405 38.7849 26.5364C39.0961 26.8357 39.5785 26.3622 39.2629 26.0629C36.4311 23.3512 37.8831 18.1377 38.8526 14.8899C39.6913 12.0754 41.9684 8.33615 40.4308 5.37872C39.2313 3.07353 36.4807 4.94538 35.3129 6.29454C33.5859 8.29148 33.0042 10.9764 33.64 13.5094C33.7482 13.9294 34.3975 13.7507 34.2938 13.3307Z" fill="#46A358"/>
<path d="M48.5877 24.182C48.9755 23.3288 49.7601 22.1226 50.8107 21.9796C52.4114 21.7607 53.2366 23.7532 52.3799 25.071C51.5727 26.313 50.0351 27.1797 48.7094 27.7113C46.5044 28.5914 45.0254 29.8065 43.4247 31.5443C43.1316 31.8615 43.6095 32.3395 43.9026 32.0179C44.8721 30.9591 45.8641 29.8601 47.1267 29.1275C48.1322 28.5422 49.3001 28.3144 50.3102 27.7426C51.5412 27.0412 53.5342 25.5267 53.6785 23.9989C53.7958 22.7659 52.4836 21.3363 51.2571 21.2603C49.7781 21.1665 48.5426 22.6676 48.006 23.847C47.8256 24.2312 48.4118 24.5752 48.5877 24.182Z" fill="#46A358"/>
<path d="M23.3007 24.9595C23.4495 23.7845 23.8959 23.3512 24.6354 23.6684C24.897 23.6729 25.1134 23.7667 25.2938 23.9498C25.65 24.1821 25.8845 24.5261 26.0964 24.888C26.4752 25.5358 26.651 26.2908 26.9306 26.9787C27.2868 27.8633 27.7558 28.5826 28.5629 29.1097C28.9282 29.3509 29.2664 28.7702 28.9056 28.5289C26.9216 27.2245 27.4762 23.8381 24.9962 23.0161C23.5081 22.5247 22.0111 23.8024 22.719 25.2945C22.9039 25.6877 23.4856 25.3481 23.3007 24.9595Z" fill="#46A358"/>
<path d="M47.5332 7.6214C47.1815 5.69147 49.2332 4.15468 50.8024 5.56192C51.6681 6.33925 52.0018 7.76882 52.0063 8.88568C52.0154 10.4001 51.3164 11.7538 51.614 13.2727C51.6952 13.6971 52.349 13.5184 52.2679 13.094C51.8936 11.1864 52.9668 9.35922 52.4843 7.38016C52.1957 6.19629 51.6095 4.8784 50.374 4.43166C48.1465 3.63199 46.5097 5.76742 46.8794 7.79563C46.9606 8.22003 47.6099 8.04133 47.5332 7.6214Z" fill="#46A358"/>
<path d="M47.195 12.0396C48.2952 14.3314 48.8363 16.3417 48.7552 18.8837C48.7416 19.317 49.418 19.3125 49.4315 18.8837C49.5172 16.2121 48.931 14.0991 47.7812 11.7045C47.5918 11.3159 47.0101 11.6554 47.195 12.0396Z" fill="#46A358"/>
<path d="M64.7349 10.1231C65.3887 8.64442 66.6242 7.71073 68.0536 7.00935C68.464 6.79491 68.8878 6.62068 69.3297 6.48219C71.2371 7.1255 71.7196 8.01452 70.7772 9.15818C70.3263 9.85956 69.6724 10.4895 69.1088 11.106C66.9624 13.4514 64.6447 15.6225 62.1962 17.6507C61.8625 17.9277 62.3405 18.4013 62.6742 18.1243C64.8882 16.2926 66.994 14.3448 68.96 12.2541C70.1414 10.9988 72.4095 9.13584 71.9135 7.15231C70.926 3.22098 64.9784 7.9073 64.1487 9.78808C63.9773 10.1767 64.5635 10.5163 64.7349 10.1231Z" fill="#46A358"/>
<path d="M60.9162 20.0854C58.7563 21.6579 57.4441 23.9497 57.1961 26.59C57.1555 27.0188 57.8319 27.0144 57.8725 26.59C58.0979 24.2044 59.3064 22.0823 61.2589 20.6617C61.6061 20.4115 61.2679 19.8263 60.9162 20.0854Z" fill="#46A358"/>
<path d="M65.1948 31.263C65.6367 30.9994 66.0786 30.7224 66.543 30.4946C66.8948 30.3025 67.2645 30.155 67.6523 30.0523C68.3783 29.753 68.6218 30.3114 68.3783 31.7276C67.9003 32.6613 65.312 32.697 64.5094 32.6479C62.5028 32.5317 60.6135 31.9867 58.634 32.5898C58.2191 32.7149 58.395 33.3626 58.8143 33.2376C61.1907 32.5094 63.5039 33.5681 65.9027 33.3046C67.2059 33.1571 69.0501 32.563 69.6995 31.3121C70.0602 30.6152 69.9745 29.6949 69.1854 29.3152C67.8913 28.6942 65.8712 30.0702 64.8521 30.6822C64.4824 30.91 64.8205 31.4908 65.1948 31.263Z" fill="#46A358"/>
<path d="M55.1397 33.7557C51.6226 36.5836 50.342 40.8723 49.9858 45.1968C49.9497 45.6257 50.6261 45.6257 50.6621 45.1968C51.0048 41.0376 52.2358 36.9455 55.6177 34.2293C55.9559 33.9568 55.4734 33.4877 55.1397 33.7557Z" fill="#46A358"/>
<path d="M40.0028 34.8949C38.9566 36.6908 38.9882 38.6476 39.2182 40.6579C39.4121 42.3466 39.633 44.004 40.8099 45.3174C41.0985 45.6391 41.5765 45.1655 41.2879 44.8439C40.1335 43.5573 39.9892 41.7703 39.8359 40.1263C39.6736 38.4153 39.6962 36.7579 40.589 35.23C40.8054 34.8592 40.2237 34.5241 40.0028 34.8949Z" fill="#46A358"/>
<path d="M21.3439 30.4812C19.387 30.508 20.1625 32.5496 21.2087 33.2822C22.5163 34.1981 24.0044 34.8101 25.3932 35.583C27.03 36.4943 27.6883 38.0311 28.9464 39.3133C29.2485 39.6215 29.7265 39.148 29.4244 38.8397C28.1753 37.5665 27.5711 36.0431 25.9613 35.1318C25.1497 34.6716 24.2974 34.283 23.4813 33.8407C23.0574 33.6128 22.6336 33.385 22.2277 33.1304C22.0654 33.0321 21.8986 32.9293 21.7362 32.831C20.9291 32.5273 20.8028 31.9688 21.3485 31.1558C21.7768 31.1468 21.7768 30.4767 21.3439 30.4812Z" fill="#46A358"/>
<path d="M72.2386 33.5682C72.2612 34.4617 71.8463 34.9486 70.9851 35.0335C70.5702 35.1988 70.1599 35.3596 69.745 35.5249C69.1273 35.7706 68.505 36.0163 67.8873 36.262C66.4443 36.8339 64.9969 37.4102 63.5539 37.982C63.1526 38.1383 63.3285 38.7906 63.7343 38.6298C65.3847 37.973 67.035 37.3208 68.6854 36.6641C69.9074 36.1771 71.4675 35.8287 72.5542 35.0692C73.4967 34.4081 73.5237 33.0366 72.2341 32.8981C71.8057 32.8489 71.8102 33.5235 72.2386 33.5682Z" fill="#46A358"/>
<path d="M62.0026 38.9111C60.19 40.6087 58.7606 42.6012 57.7505 44.8617C57.5746 45.2504 58.1563 45.5944 58.3367 45.2012C59.3242 42.9943 60.7085 41.0465 62.4851 39.3891C62.7963 39.0898 62.3183 38.6163 62.0026 38.9111Z" fill="#46A358"/>
<path d="M30.5512 41.8418C31.0698 42.6013 31.4034 43.4188 31.5613 44.3212C31.6334 44.7456 32.2872 44.5669 32.2151 44.1425C32.0482 43.191 31.683 42.3019 31.1374 41.5023C30.8939 41.1493 30.3077 41.4844 30.5512 41.8418Z" fill="#46A358"/>
</g>
<defs>
<clipPath id="clip0_157_263">
<rect width="55" height="48.2388" fill="white" transform="translate(19 45.2239)"/>
</clipPath>
<clipPath id="clip1_157_263">
<rect width="61" height="46.2289" fill="white" transform="translate(16)"/>
</clipPath>
</defs>
</svg>
