<svg xmlns="http://www.w3.org/2000/svg">

  <symbol id="loupe" vviewBox="0 0 20 20" fill="none" xmlns="http://www.w3.org/2000/svg">
<path d="M14.5726 16.0029C10.5755 19.1865 4.988 18.3056 2.02842 14.6542C-0.828088 11.129 -0.64944 6.04347 2.44943 2.82482C5.65137 -0.500594 10.6854 -0.944524 14.3346 1.78337C15.642 2.76051 16.6183 4.00364 17.2542 5.50838C17.8938 7.02186 18.0881 8.59654 17.8663 10.2205C17.6452 11.837 17 13.2775 15.9499 14.6217C16.0349 14.6773 16.1255 14.7173 16.1904 14.7822C17.3448 15.9311 18.4947 17.0843 19.6491 18.2331C19.9227 18.5054 20.0589 18.8225 19.9776 19.2047C19.8165 19.9651 18.9107 20.2586 18.3298 19.7366C18.0575 19.4925 17.807 19.2234 17.5484 18.9649C16.6002 18.0177 15.6526 17.0699 14.7044 16.1227C14.665 16.0853 14.6238 16.0503 14.5726 16.0029ZM15.9605 8.98677C15.9705 5.12689 12.8529 2.00627 8.98261 2.00065C5.12292 1.99503 2.00781 5.09068 1.99094 8.94806C1.97408 12.8173 5.08544 15.9467 8.96762 15.9648C12.8117 15.9829 15.9505 12.8504 15.9605 8.98677Z" fill="#3D3D3D"/>
  </symbol>

  <symbol id="basket" viewBox="0 0 31 24" fill="none" xmlns="http://www.w3.org/2000/svg">
<path d="M17.1558 20.25H9.89066C6.78905 20.25 4.26569 17.7267 4.26569 14.6251V8.85947C4.26569 5.9762 2.82861 3.30739 0.421544 1.72031C-0.0107343 1.43531 -0.130077 0.853876 0.154921 0.421598C0.439919 -0.0107278 1.02131 -0.130118 1.45368 0.154974C2.82776 1.06097 3.94254 2.2559 4.73969 3.63167C4.91195 3.82466 6.30104 5.29699 8.57821 5.29699H19.3738C22.3191 5.24191 24.6245 8.19769 23.8544 11.0406L22.6117 15.9939C21.9829 18.4998 19.7394 20.25 17.1558 20.25ZM5.90415 6.64234C6.06001 7.36238 6.14068 8.10483 6.14068 8.85947V14.6251C6.14068 16.6928 7.82292 18.375 9.89066 18.375H17.1558C18.8782 18.375 20.3739 17.2082 20.793 15.5376L22.0358 10.5844C22.4933 8.89509 21.1233 7.13931 19.3738 7.17198H8.57817C7.54828 7.17198 6.65185 6.94993 5.90415 6.64234ZM9.42191 22.8281C9.42191 22.1809 8.89724 21.6563 8.25004 21.6563C6.69511 21.7182 6.69647 23.9387 8.25004 24C8.89724 24 9.42191 23.4753 9.42191 22.8281ZM18.75 22.8281C18.75 22.1809 18.2253 21.6563 17.5781 21.6563C16.0232 21.7182 16.0245 23.9387 17.5781 24C18.2253 24 18.75 23.4753 18.75 22.8281ZM20.3113 9.98446C20.3113 9.46668 19.8916 9.04697 19.3738 9.04697H8.95316C7.7093 9.09647 7.71023 10.8729 8.95316 10.922H19.3738C19.8916 10.922 20.3113 10.5022 20.3113 9.98446Z" fill="#3D3D3D"/>
<circle cx="23" cy="8" r="7" fill="#46A358" stroke="white" stroke-width="2"/>
<path d="M25.12 8.83C25.12 7.58 24.1 6.62 22.95 6.62C22.84 6.62 22.75 6.63 22.66 6.65L24.25 4.4H23L21.35 6.73C21.12 7.06 20.95 7.31 20.84 7.49C20.73 7.67 20.64 7.87 20.56 8.1C20.49 8.32 20.45 8.56 20.45 8.82C20.42 10.12 21.53 11.13 22.78 11.11C24.04 11.11 25.12 10.12 25.12 8.83ZM24.07 8.83C24.07 9.2 23.94 9.52 23.69 9.77C23.44 10.02 23.14 10.14 22.78 10.14C22.41 10.14 22.11 10.02 21.86 9.77C21.61 9.52 21.49 9.2 21.49 8.83C21.49 8.46 21.61 8.15 21.86 7.9C22.11 7.65 22.41 7.52 22.78 7.52C23.14 7.52 23.44 7.65 23.69 7.9C23.94 8.15 24.07 8.46 24.07 8.83Z" fill="white"/>
</svg>

  </symbol>

</svg>