<svg width="35" height="35" viewBox="0 0 35 35" fill="none" xmlns="http://www.w3.org/2000/svg">
<rect x="0.5" y="0.5" width="34" height="34" rx="3.5" stroke="#E5E5E5"/>
<path d="M20.55 19.31C20.55 16.898 18.624 15.692 16.752 15.692L20.208 11.426V11.12H13.314V11.984H18.696L15.276 16.214V16.502H16.284C18.354 16.502 19.578 17.582 19.578 19.31C19.578 20.192 19.29 20.912 18.696 21.47C18.12 22.028 17.382 22.298 16.464 22.298C15.132 22.298 14.052 21.65 13.242 20.354L12.558 20.84C13.404 22.19 14.682 23.18 16.464 23.18C18.624 23.18 20.55 21.722 20.55 19.31Z" fill="#3D3D3D"/>
</svg>
