<svg width="150" height="35" viewBox="0 0 150 35" fill="none" xmlns="http://www.w3.org/2000/svg">
<g clip-path="url(#clip0_157_229)">
<path d="M17.15 0C7.67748 0 0 7.67746 0 17.15C0 26.0201 6.73548 33.3175 15.3711 34.207C14.8496 29.9134 15.0436 26.4001 15.7067 23.5135C15.3347 21.7225 14.4898 19.0703 12.5734 17.1864C12.5734 17.1864 13.8348 19.0784 14.5181 21.6214C14.5181 21.6255 14.5221 21.6295 14.5221 21.6335C14.5949 21.9044 14.6596 22.1793 14.7162 22.4623C14.7283 22.527 14.7404 22.5917 14.7526 22.6604C14.8051 22.9515 14.8536 23.2426 14.886 23.5418C5.19513 22.3532 3.12921 13.6569 3.35561 10.3781C13.665 10.9482 15.7754 17.8292 16.0827 22.0985C19.4585 11.0412 30.1843 10.4024 31.0697 10.3781C31.4538 18.8763 25.1509 25.5026 17.6149 26.0807C17.6635 25.8503 17.7201 25.6198 17.7767 25.3934C17.7928 25.3247 17.813 25.26 17.8333 25.1913C17.8777 25.0296 17.9222 24.8679 17.9748 24.7061C17.995 24.6374 18.0192 24.5646 18.0394 24.4959C18.096 24.318 18.1567 24.1442 18.2173 23.9663C18.2335 23.9259 18.2456 23.8854 18.2618 23.845C18.3386 23.6348 18.4195 23.4326 18.5003 23.2305C18.5084 23.2143 18.5125 23.1941 18.5205 23.1779C18.5205 23.1779 18.5205 23.1779 18.5246 23.1779C20.4571 18.5043 24.0229 15.4439 24.0229 15.4439C17.0247 19.4868 15.8441 29.9983 15.6582 34.2231C16.1514 34.2676 16.6446 34.2999 17.15 34.2999C26.6225 34.2999 34.3 26.6225 34.3 17.15C34.3 7.67746 26.6225 0 17.15 0Z" fill="#46A358"/>
<path d="M46.7038 10.7454C48.9719 10.7454 50.8235 11.7197 52.0243 13.4986L49.7764 15.4109C48.9719 14.287 47.9975 13.7048 46.6472 13.7048C44.5691 13.7048 43.2754 15.0713 43.2754 17.1534C43.2754 19.2719 44.6419 20.695 46.8372 20.695C48.0177 20.695 48.9557 20.2826 49.5541 19.5912V19.0091H46.6674V16.2356H52.7763V20.133C52.1941 21.1639 51.3693 21.9887 50.302 22.6234C49.2347 23.242 48.0339 23.5614 46.7038 23.5614C42.9924 23.618 39.9238 20.7313 39.9764 17.1534C39.9198 13.5956 42.9924 10.6888 46.7038 10.7454Z" fill="#46A358"/>
<path d="M61.9581 23.3316L59.1685 19.4908H57.8384V23.3316H54.6162V10.9684H59.4677C62.2209 10.9684 64.2464 12.6543 64.2464 15.2215C64.2464 16.7376 63.5147 17.995 62.2978 18.7429L65.5563 23.3316H61.9581ZM57.8344 16.681H59.4839C60.3814 16.681 60.9636 16.0988 60.9636 15.2215C60.9636 14.3442 60.3814 13.7782 59.4839 13.7782H57.8344V16.681Z" fill="#46A358"/>
<path d="M66.833 10.9684H75.4121V13.8712H70.0552V15.5773H73.8758V18.2739H70.0552V20.4288H75.6385V23.3316H66.833V10.9684Z" fill="#46A358"/>
<path d="M77.6445 10.9684H86.2235V13.8712H80.8667V15.5773H84.6872V18.2739H80.8667V20.4288H86.4499V23.3316H77.6445V10.9684Z" fill="#46A358"/>
<path d="M99.4194 10.9683V23.5579H98.3884L91.6812 17.057V23.3315H88.459V10.7419H89.4899L96.1971 17.1499V10.9683H99.4194Z" fill="#46A358"/>
<path d="M103.264 19.135C103.996 20.1094 104.764 20.7279 106.017 20.7279C106.862 20.7279 107.291 20.4288 107.291 19.8264C107.291 19.2846 107.008 19.1148 106.034 18.6822L104.76 18.1203C102.718 17.2187 101.631 16.0584 101.631 14.3927C101.631 12.2014 103.43 10.7379 105.957 10.7379C107.998 10.7379 109.442 11.7123 110.19 13.2283L108.035 14.8778C107.436 13.9803 106.875 13.5679 105.993 13.5679C105.318 13.5679 104.889 13.8307 104.889 14.3563C104.889 14.8051 105.152 15.0517 105.957 15.367L107.38 15.9654C109.535 16.867 110.545 17.9505 110.545 19.6929C110.545 22.0904 108.577 23.5539 106.009 23.5539C103.782 23.5539 101.983 22.4866 101.081 20.7805L103.264 19.135Z" fill="#46A358"/>
<path d="M112.393 10.9684H115.615V15.4843H120.131V10.9684H123.353V23.3316H120.131V18.3871H115.615V23.3316H112.393V10.9684Z" fill="#46A358"/>
<path d="M131.843 10.7419C135.442 10.6651 138.607 13.6084 138.53 17.1499C138.603 20.7279 135.442 23.6145 131.843 23.5579C128.229 23.6145 125.116 20.7279 125.193 17.1499C125.116 13.6084 128.229 10.6692 131.843 10.7419ZM131.86 13.7014C129.874 13.7014 128.488 15.1083 128.488 17.1499C128.488 18.1809 128.807 19.0218 129.426 19.6606C130.044 20.2791 130.869 20.5985 131.86 20.5985C133.772 20.5985 135.231 19.2118 135.231 17.1499C135.235 15.1083 133.772 13.7014 131.86 13.7014Z" fill="#46A358"/>
<path d="M140.374 10.9684H145.225C147.979 10.9684 150.004 12.6543 150.004 15.2215C150.004 17.7524 147.926 19.4908 145.225 19.4908H143.596V23.3316H140.374V10.9684ZM145.242 16.681C146.139 16.681 146.721 16.0988 146.721 15.2215C146.721 14.3442 146.139 13.7782 145.242 13.7782H143.592V16.681H145.242Z" fill="#46A358"/>
</g>
<defs>
<clipPath id="clip0_157_229">
<rect width="150" height="34.2999" fill="white"/>
</clipPath>
</defs>
</svg>
