<svg width="91" height="95" viewBox="0 0 91 95" fill="none" xmlns="http://www.w3.org/2000/svg">
<ellipse cx="37" cy="53.8668" rx="37" ry="38.3282" fill="#46A358" fill-opacity="0.13"/>
<g clip-path="url(#clip0_157_523)">
<path d="M51.3011 45.6075C51.3209 46.1091 51.4599 46.5836 51.7181 47.0106C51.9398 47.3834 52.5057 47.0275 52.284 46.6581C52.0887 46.3294 51.9795 45.9803 51.9663 45.5973C51.9464 45.1601 51.2845 45.1737 51.3011 45.6075Z" fill="#46A358"/>
<path d="M59.8094 45.5634C59.7763 45.7532 59.7399 45.9396 59.7068 46.1293C59.6737 46.309 59.7664 46.4954 59.9451 46.5428C60.1106 46.5869 60.3158 46.4784 60.3489 46.2988C60.382 46.109 60.4184 45.9226 60.4515 45.7328C60.4846 45.5532 60.3919 45.3668 60.2132 45.3193C60.0477 45.2753 59.8425 45.3837 59.8094 45.5634Z" fill="#46A358"/>
<path d="M64.3406 46.2378C64.7675 46.2277 64.7543 45.5499 64.3273 45.56C63.9004 45.5702 63.9136 46.248 64.3406 46.2378Z" fill="#46A358"/>
<path d="M39.4822 47.4376C39.9091 47.4274 39.8959 46.7496 39.4689 46.7597C39.042 46.7699 39.0552 47.4477 39.4822 47.4376Z" fill="#46A358"/>
<path d="M51.5891 4.54478C49.0341 12.2618 47.6408 20.3449 47.4886 28.4958C47.4125 32.5932 47.6474 36.6941 48.1935 40.7542C48.445 42.625 48.7627 44.489 49.1466 46.3361C49.4478 47.7799 49.6034 49.4304 50.6492 50.5319C51.0959 51.003 51.781 50.2675 51.3375 49.7998C50.209 48.6102 50.0932 46.0955 49.8019 44.5399C49.4346 42.5742 49.1433 40.5915 48.9282 38.5987C48.5211 34.83 48.3855 31.0342 48.5145 27.2452C48.776 19.5993 50.156 12.0381 52.5521 4.79558C52.7573 4.17537 51.7909 3.92796 51.5891 4.54478Z" fill="#46A358"/>
<path d="M55.4409 4.68371C56.7779 12.394 56.811 20.2737 57.0791 28.0789C57.2048 31.7459 57.4199 35.4231 57.3471 39.0935C57.271 42.9029 56.5462 46.4852 55.5699 50.1455C55.4011 50.7792 56.3642 51.0266 56.533 50.3963C57.4497 46.9699 58.1778 43.5875 58.3168 40.0221C58.4724 36.0399 58.2109 32.0374 58.0752 28.0619C57.8038 20.1619 57.7476 12.2008 56.394 4.39563C56.2815 3.7517 55.3283 4.04316 55.4409 4.68371Z" fill="#46A358"/>
<path d="M62.6293 17.9319C63.0827 28.4822 63.4931 39.1614 60.9779 49.4948C60.8223 50.132 61.7854 50.3794 61.9409 49.7456C64.476 39.324 64.0822 28.55 63.6222 17.9115C63.5924 17.2574 62.5995 17.2744 62.6293 17.9319Z" fill="#46A358"/>
<path d="M59.8226 18.0877C58.4161 19.7721 57.4762 21.731 57.0625 23.9102C56.94 24.5507 57.9031 24.8049 58.0256 24.161C58.4062 22.1478 59.2368 20.3516 60.5375 18.7926C60.9512 18.2944 60.2396 17.5895 59.8226 18.0877Z" fill="#46A358"/>
<path d="M69.6052 24.5677C69.582 32.2068 68.5825 39.7748 66.6233 47.1461C66.4545 47.7799 67.4176 48.0273 67.5863 47.3969C69.5654 39.9408 70.5748 32.2746 70.598 24.5474C70.598 23.8933 69.6052 23.9136 69.6052 24.5677Z" fill="#46A358"/>
<path d="M67.7193 22.2937C65.1511 25.3405 63.8902 29.0923 62.9834 32.9525C62.8344 33.5897 63.7975 33.8405 63.9464 33.2033C64.8135 29.5261 65.9851 25.9099 68.4375 22.9986C68.8511 22.5038 68.1363 21.7955 67.7193 22.2937Z" fill="#46A358"/>
<path d="M43.7547 10.791C45.522 15.0545 46.8061 19.474 47.6004 24.0323C47.7129 24.6763 48.6628 24.3814 48.5535 23.7409C47.7593 19.1825 46.4719 14.7631 44.7079 10.4995C44.4597 9.90645 43.5065 10.1877 43.7547 10.791Z" fill="#46A358"/>
<path d="M41.9146 11.1604C41.395 17.6302 40.8854 24.1814 41.9378 30.6275C43.0399 37.3516 45.7471 43.9129 47.8287 50.3692C48.0273 50.9894 48.9804 50.7013 48.7819 50.0777C46.7664 43.818 44.1618 37.4532 42.9968 30.9597C41.8253 24.422 42.378 17.7149 42.9075 11.14C42.9604 10.4893 41.9676 10.513 41.9146 11.1604Z" fill="#46A358"/>
<path d="M35.5969 26.791C38.9097 29.9497 41.5937 33.6438 43.6059 37.7955C43.8905 38.3818 44.7345 37.8463 44.4532 37.2634C42.4046 33.0372 39.6577 29.2718 36.2853 26.0556C35.8186 25.6116 35.1303 26.3436 35.5969 26.791Z" fill="#46A358"/>
<path d="M33.3238 28.0959C35.8887 35.9451 39.3405 43.4418 43.6263 50.4573C43.9639 51.0131 44.8144 50.4844 44.4736 49.9252C40.2308 42.9809 36.8153 35.5723 34.2769 27.8044C34.0751 27.1876 33.1219 27.4723 33.3238 28.0959Z" fill="#46A358"/>
<path d="M39.0687 48.4407C37.6059 45.7633 35.4613 43.5367 32.7939 42.12C32.2511 41.8319 31.7315 41.9065 32.7839 41.798C33.1678 41.7574 33.565 41.7404 33.9489 41.7472C35.1999 41.7608 36.3317 41.9912 37.4073 42.686C38.6583 43.4926 39.7505 44.6517 40.8691 45.6379C41.3523 46.065 42.0406 45.3329 41.5575 44.9059C40.141 43.6519 38.7378 42.0861 37.0003 41.3066C36.0306 40.8694 34.9815 40.7406 33.929 40.7372C33.2605 40.7338 31.8705 40.6051 31.3112 41.188C30.2191 42.32 32.3107 42.9876 32.9626 43.3841C35.1999 44.733 36.9605 46.6716 38.2215 48.983C38.5326 49.5456 39.3798 49.0135 39.0687 48.4407Z" fill="#46A358"/>
<path d="M69.2809 40.1849C70.2506 37.9718 72.5044 37.277 74.6489 36.8161C74.9633 36.7483 75.0891 36.3212 74.9302 36.0637C73.7653 34.1793 71.6439 33.9861 69.6549 34.1725C69.0228 34.2302 69.036 35.2469 69.6747 35.1893C71.2798 35.0402 73.1166 35.03 74.083 36.5958C74.1757 36.345 74.2716 36.0942 74.3643 35.8434C71.9748 36.3551 69.4828 37.2397 68.4138 39.69C68.1523 40.2831 69.0194 40.7813 69.2809 40.1849Z" fill="#46A358"/>
<path d="M35.4313 25.8081C34.9944 26.3979 34.5046 27.1333 33.7798 27.3705C33.065 27.6044 32.3005 27.2689 32.3567 26.3843C32.3998 25.6929 32.9789 25.1879 33.5415 24.8999C34.1968 24.5643 35.9939 24.405 35.5173 25.6929C35.2923 26.3063 36.2553 26.547 36.4804 25.9437C36.9404 24.6999 35.835 23.612 34.6635 23.5883C33.4323 23.5645 31.9993 24.4017 31.536 25.598C31.1024 26.7063 31.5558 28.0924 32.7605 28.4076C34.2332 28.7906 35.3485 27.5942 36.1494 26.5165C36.53 25.9945 35.8185 25.2862 35.4313 25.8081Z" fill="#46A358"/>
<path d="M43.9963 10.0284C43.3775 10.147 42.4806 10.5605 41.8617 10.2216C41.2428 9.87927 41.3553 9.0286 41.7128 8.53717C42.0867 8.02541 42.6758 7.83901 43.2715 8.00847C43.7547 8.14742 45.2606 9.44207 44.2115 9.88944C43.629 10.1368 43.9037 11.1163 44.4961 10.8655C45.7371 10.3368 45.6941 8.86592 44.8965 7.92035C44.0923 6.96462 42.6527 6.60198 41.5771 7.29675C40.6372 7.90679 40.1143 9.23533 40.6239 10.2995C41.3454 11.8111 43.0333 11.2417 44.281 11.0045C44.9065 10.8825 44.6185 9.90638 43.9963 10.0284Z" fill="#46A358"/>
<path d="M55.7917 3.82637C54.9312 4.05344 53.9285 4.32119 53.0415 4.10089C51.7938 3.79587 51.7475 2.33177 52.6245 1.5726C53.3261 0.965948 54.4017 0.898166 55.2523 1.16252C55.7884 1.32859 56.4172 1.68783 56.5628 2.2911C56.7018 2.85708 56.4338 3.41629 55.8778 3.55524C55.2589 3.71114 55.5402 4.68721 56.1624 4.53131C57.6417 4.15851 57.9661 2.27076 57.0559 1.15913C56.03 -0.0914595 53.9715 -0.304975 52.5914 0.386407C51.2941 1.03712 50.5031 2.78591 51.3669 4.12123C52.3664 5.67006 54.6201 5.18202 56.073 4.79566C56.6919 4.63637 56.4106 3.66031 55.7917 3.82637Z" fill="#46A358"/>
<path d="M62.8707 13.8208C61.4443 13.5598 59.8822 13.9835 59.2302 15.4306C58.7007 16.6033 59.2004 18.125 60.4316 18.5656C61.6726 19.0096 63.5557 18.4605 64.2441 17.2811C64.9027 16.1458 64.4261 14.7054 63.387 14.0275C62.8475 13.6751 62.3676 14.5664 62.9038 14.9155C63.5723 15.3493 63.7907 16.3355 63.2446 16.9693C62.7581 17.5353 61.719 17.7759 61.014 17.6471C60.1072 17.4811 59.7564 16.5084 60.2098 15.7052C60.7062 14.8274 61.7289 14.6444 62.6291 14.807C63.2546 14.9223 63.4995 13.936 62.8707 13.8208Z" fill="#46A358"/>
<path d="M70.5656 19.44C69.3113 19.3552 67.5738 19.5383 67.2958 21.1108C67.0674 22.3987 68.4971 24.1 69.5926 24.5576C72.7201 25.8624 73.3886 19.3552 70.6913 19.5281C70.0559 19.5688 70.0724 20.5855 70.7112 20.5448C71.5882 20.4872 71.3731 22.6122 71.1745 23.0325C70.7079 24.0322 69.8143 23.6662 69.2252 23.0291C68.7718 22.5376 67.9577 21.6666 68.4276 20.9617C68.881 20.2839 69.8937 20.4127 70.5854 20.4567C71.2242 20.5008 71.1977 19.484 70.5656 19.44Z" fill="#46A358"/>
<path d="M52.6379 6.39854C52.5386 6.74084 52.436 7.08314 52.3367 7.42544C52.2143 7.8457 52.8563 8.00837 52.9788 7.59151C53.0781 7.24921 53.1807 6.90691 53.28 6.5646C53.4024 6.14435 52.7604 5.98167 52.6379 6.39854Z" fill="#46A358"/>
<path d="M54.0508 6.45629C54.0541 6.68336 54.0608 6.90705 54.0641 7.13412C54.074 7.57131 54.7359 7.55776 54.726 7.12056C54.7227 6.89349 54.716 6.66981 54.7127 6.44274C54.7061 6.00554 54.0442 6.01909 54.0508 6.45629Z" fill="#46A358"/>
<path d="M53.5812 10.5333C54.0082 10.5231 53.9949 9.84529 53.568 9.85546C53.1444 9.86224 53.1576 10.5401 53.5812 10.5333Z" fill="#46A358"/>
<path d="M51.6053 10.9129C51.5755 11.2891 51.5457 11.6687 51.5192 12.0449C51.506 12.2279 51.6913 12.3804 51.8568 12.377C52.0521 12.3736 52.1679 12.2143 52.1811 12.0313C52.2109 11.6551 52.2407 11.2756 52.2672 10.8994C52.2804 10.7163 52.0951 10.5638 51.9296 10.5672C51.7343 10.5706 51.6185 10.7299 51.6053 10.9129Z" fill="#46A358"/>
<path d="M53.171 12.011C53.1809 12.4244 53.1876 12.8379 53.1975 13.2548C53.2074 13.692 53.8693 13.6784 53.8594 13.2412C53.8495 12.8277 53.8428 12.4143 53.8329 11.9974C53.823 11.5602 53.1611 11.5738 53.171 12.011Z" fill="#46A358"/>
<path d="M54.3424 9.61155C54.3854 9.95047 54.4284 10.2894 54.4715 10.6249C54.4946 10.8079 54.6171 10.9604 54.809 10.957C54.9712 10.9536 55.1565 10.7944 55.1334 10.6113C55.0903 10.2724 55.0473 9.93352 55.0043 9.598C54.9811 9.41498 54.8587 9.26247 54.6667 9.26586C54.5012 9.26925 54.3159 9.42854 54.3424 9.61155Z" fill="#46A358"/>
<path d="M54.4386 14.6952C54.4419 14.885 54.4452 15.0714 54.4485 15.2612C54.4584 15.6984 55.1203 15.6848 55.1104 15.2476C55.1071 15.0579 55.1038 14.8714 55.1005 14.6817C55.0906 14.2445 54.4287 14.258 54.4386 14.6952Z" fill="#46A358"/>
<path d="M53.005 9.18793C52.9719 9.52345 53.0447 9.83864 53.1804 10.1437C53.2532 10.3097 53.4981 10.3436 53.6371 10.2555C53.8059 10.1504 53.8191 9.95726 53.7463 9.7878C53.6603 9.59462 53.647 9.38111 53.6669 9.17098C53.6835 8.98797 53.4915 8.83546 53.3293 8.83885C53.1341 8.84562 53.0215 9.00491 53.005 9.18793Z" fill="#46A358"/>
<path d="M50.6951 14.5697C50.6289 14.9493 50.5627 15.3255 50.4965 15.7051C50.4204 16.1321 51.0624 16.3016 51.1385 15.8712C51.2047 15.4916 51.2709 15.1154 51.3371 14.7358C51.4099 14.3088 50.7712 14.1393 50.6951 14.5697Z" fill="#46A358"/>
<path d="M52.5188 16.9082C52.489 17.1726 52.4559 17.4369 52.4261 17.7013C52.4063 17.8843 52.4758 18.0639 52.6644 18.1148C52.82 18.1554 53.045 18.0538 53.0682 17.8708C53.098 17.6064 53.131 17.3421 53.1608 17.0777C53.1807 16.8947 53.1112 16.7151 52.9225 16.6642C52.767 16.6202 52.542 16.7252 52.5188 16.9082Z" fill="#46A358"/>
<path d="M51.9359 21.7311C51.9888 22.0192 51.9557 22.3005 51.8664 22.575C51.7307 22.9885 52.3727 23.1545 52.5084 22.7411C52.6375 22.3479 52.6474 21.9446 52.5713 21.5379C52.5382 21.3583 52.3198 21.26 52.1609 21.3108C51.9723 21.3685 51.8995 21.5515 51.9359 21.7311Z" fill="#46A358"/>
<path d="M49.9143 18.9961C49.8845 19.2604 49.8514 19.5248 49.8216 19.7891C49.8018 19.9722 49.8713 20.1518 50.0599 20.2026C50.2155 20.2433 50.4405 20.1416 50.4637 19.9586C50.4935 19.6942 50.5266 19.4299 50.5563 19.1655C50.5762 18.9825 50.5067 18.8029 50.3181 18.7521C50.1592 18.7114 49.9342 18.8131 49.9143 18.9961Z" fill="#46A358"/>
<path d="M54.4211 19.5349C54.5005 19.911 54.5767 20.2872 54.6561 20.66C54.7455 21.0871 55.3809 20.8905 55.2915 20.4669C55.2121 20.0907 55.136 19.7145 55.0565 19.3417C54.9672 18.9146 54.3351 19.1078 54.4211 19.5349Z" fill="#46A358"/>
<path d="M54.8555 24.5169C54.8621 24.8931 54.8721 25.2693 54.8787 25.6455C54.8886 26.0827 55.5505 26.0691 55.5406 25.632C55.534 25.2558 55.524 24.8796 55.5174 24.5034C55.5108 24.0662 54.8489 24.0797 54.8555 24.5169Z" fill="#46A358"/>
<path d="M54.0744 29.4854C54.1175 29.7498 54.1572 30.0108 54.2002 30.2751C54.23 30.4547 54.455 30.5496 54.6106 30.5022C54.7992 30.4446 54.8621 30.2616 54.8323 30.0819C54.7893 29.8176 54.7496 29.5566 54.7066 29.2923C54.6768 29.1126 54.4517 29.0178 54.2962 29.0652C54.1075 29.1194 54.0446 29.3024 54.0744 29.4854Z" fill="#46A358"/>
<path d="M51.3731 26.9639C51.3764 27.191 51.383 27.4146 51.3863 27.6417C51.3963 28.0789 52.0582 28.0654 52.0482 27.6282C52.0449 27.4011 52.0383 27.1774 52.035 26.9503C52.0284 26.5131 51.3665 26.5267 51.3731 26.9639Z" fill="#46A358"/>
<path d="M49.5503 24.0627C49.5735 24.344 49.547 24.6084 49.4676 24.8795C49.3451 25.2998 49.9872 25.4624 50.1096 25.0456C50.2056 24.7236 50.2387 24.3847 50.2122 24.0492C50.1758 23.6187 49.5139 23.6289 49.5503 24.0627Z" fill="#46A358"/>
<path d="M50.3804 31.8646C50.3473 32.129 50.3175 32.3933 50.2844 32.6577C50.2613 32.8407 50.3341 33.0203 50.5227 33.0711C50.6783 33.1118 50.9033 33.0101 50.9265 32.8271C50.9596 32.5628 50.9894 32.2984 51.0225 32.0341C51.0456 31.8511 50.9728 31.6714 50.7842 31.6206C50.6253 31.5799 50.4036 31.6816 50.3804 31.8646Z" fill="#46A358"/>
<path d="M53.756 35.7045C53.799 35.9282 53.8387 36.1552 53.8818 36.3789C53.9149 36.5585 54.1333 36.6568 54.2921 36.606C54.4775 36.5484 54.547 36.3654 54.5139 36.1857C54.4709 35.9621 54.4311 35.735 54.3881 35.5113C54.355 35.3317 54.1366 35.2334 53.9777 35.2842C53.7924 35.3419 53.7229 35.5249 53.756 35.7045Z" fill="#46A358"/>
<path d="M51.9662 39.585C52.0457 39.9612 52.1284 40.334 52.2078 40.7102C52.3005 41.1372 52.9326 40.9407 52.8433 40.517C52.7638 40.1408 52.6811 39.768 52.6017 39.3918C52.509 38.9648 51.8736 39.158 51.9662 39.585Z" fill="#46A358"/>
<path d="M55.6591 42.0386C55.5896 42.303 55.5234 42.5673 55.4539 42.8351C55.3446 43.2587 55.9867 43.4248 56.0959 43.0012C56.1654 42.7368 56.2316 42.4725 56.3011 42.2047C56.4103 41.7811 55.7683 41.615 55.6591 42.0386Z" fill="#46A358"/>
<path d="M55.166 12.6245C55.2091 12.8889 55.2521 13.1498 55.2951 13.4142C55.3249 13.5938 55.5499 13.6887 55.7055 13.6413C55.8941 13.5836 55.957 13.4006 55.9272 13.221C55.8842 12.9567 55.8412 12.6957 55.7981 12.4313C55.7684 12.2517 55.5433 12.1568 55.3878 12.2043C55.2024 12.2619 55.1362 12.4449 55.166 12.6245Z" fill="#46A358"/>
<path d="M55.2457 17.2777C55.292 17.6166 55.3383 17.9521 55.3847 18.291C55.4111 18.4706 55.527 18.6265 55.7222 18.6232C55.8844 18.6198 56.0697 18.4605 56.0466 18.2775C56.0002 17.9386 55.9539 17.603 55.9076 17.2641C55.8811 17.0845 55.7653 16.9286 55.57 16.932C55.4078 16.9354 55.2192 17.0981 55.2457 17.2777Z" fill="#46A358"/>
<path d="M60.2097 21.0397C60.1204 21.5718 60.0277 22.1005 59.9384 22.6326C59.8656 23.0596 60.5076 23.2291 60.5804 22.7987C60.6698 22.2666 60.7624 21.7379 60.8518 21.2058C60.9246 20.7787 60.2826 20.6093 60.2097 21.0397Z" fill="#46A358"/>
<path d="M61.4971 20.084C61.5037 20.3484 61.507 20.6127 61.5137 20.8737C61.5236 21.3109 62.1855 21.2973 62.1756 20.8601C62.1689 20.5958 62.1656 20.3314 62.159 20.0705C62.1491 19.6333 61.4905 19.6468 61.4971 20.084Z" fill="#46A358"/>
<path d="M61.1369 23.7069C61.074 24.2729 61.0144 24.8389 60.9515 25.4049C60.9052 25.8387 61.5671 25.8184 61.6134 25.3913C61.6763 24.8253 61.7359 24.2594 61.7988 23.6934C61.8451 23.263 61.1832 23.2799 61.1369 23.7069Z" fill="#46A358"/>
<path d="M59.4224 24.6999C59.2801 25.0049 59.1411 25.31 58.9988 25.6116C58.8168 26.0047 59.396 26.3369 59.578 25.9403C59.7203 25.6353 59.8593 25.3303 60.0016 25.0287C60.1836 24.6355 59.6045 24.3034 59.4224 24.6999Z" fill="#46A358"/>
<path d="M58.4263 22.8868C58.3403 23.1173 58.2575 23.3443 58.1715 23.5748C58.1086 23.7476 58.2509 23.9442 58.4097 23.9883C58.5984 24.0391 58.7473 23.9137 58.8135 23.7443C58.8996 23.5138 58.9823 23.2867 59.0683 23.0563C59.1312 22.8834 58.9889 22.6868 58.8301 22.6428C58.6414 22.5919 58.4925 22.714 58.4263 22.8868Z" fill="#46A358"/>
<path d="M60.316 27.34C60.3028 27.6417 60.2928 27.9433 60.2796 28.2449C60.2631 28.6821 60.925 28.6652 60.9415 28.2314C60.9547 27.9297 60.9647 27.6281 60.9779 27.3265C60.9945 26.8893 60.3326 26.9062 60.316 27.34Z" fill="#46A358"/>
<path d="M61.6729 29.1193C61.6597 29.4006 61.6464 29.6853 61.6332 29.9666C61.6233 30.1496 61.802 30.3021 61.9708 30.2988C62.1594 30.2954 62.2852 30.1361 62.2951 29.9531C62.3084 29.6718 62.3216 29.3871 62.3348 29.1058C62.3448 28.9228 62.166 28.7703 61.9973 28.7736C61.8086 28.777 61.6829 28.9363 61.6729 29.1193Z" fill="#46A358"/>
<path d="M61.1494 32.1492C61.1197 32.3932 61.0866 32.6406 61.0568 32.8846C61.0336 33.0642 61.1097 33.2473 61.2951 33.2981C61.4539 33.3388 61.6757 33.2371 61.6988 33.0541C61.7286 32.8101 61.7617 32.5627 61.7915 32.3186C61.8147 32.139 61.7385 31.956 61.5532 31.9052C61.3943 31.8611 61.1726 31.9662 61.1494 32.1492Z" fill="#46A358"/>
<path d="M58.6812 30.0548C58.6482 30.2616 58.6151 30.4717 58.582 30.6784C58.5522 30.858 58.6382 31.0411 58.8202 31.0919C58.9824 31.1326 59.1942 31.0275 59.224 30.8479C59.2571 30.6411 59.2902 30.431 59.3233 30.2243C59.3531 30.0447 59.267 29.8616 59.085 29.8108C58.9228 29.7667 58.711 29.8718 58.6812 30.0548Z" fill="#46A358"/>
<path d="M59.1573 35.4435C59.1606 35.5926 59.164 35.7451 59.1673 35.8942C59.1772 36.3314 59.8391 36.3179 59.8292 35.8807C59.8259 35.7316 59.8225 35.5791 59.8192 35.4299C59.8093 34.9927 59.1474 35.0063 59.1573 35.4435Z" fill="#46A358"/>
<path d="M61.295 37.4328C61.2983 37.5819 61.3017 37.7345 61.305 37.8836C61.3149 38.3208 61.9768 38.3072 61.9669 37.87C61.9636 37.7209 61.9602 37.5684 61.9569 37.4193C61.947 36.9821 61.2851 36.9956 61.295 37.4328Z" fill="#46A358"/>
<path d="M59.3889 41.5406C59.4154 41.8049 59.3889 42.0489 59.3061 42.2997C59.2499 42.4726 59.3823 42.6691 59.5444 42.7132C59.7298 42.7606 59.8886 42.642 59.9482 42.4692C60.0475 42.1675 60.0839 41.8456 60.0508 41.5304C60.0309 41.3474 59.9019 41.1949 59.7132 41.1983C59.5444 41.1983 59.369 41.3575 59.3889 41.5406Z" fill="#46A358"/>
<path d="M60.2065 19.3213C60.1205 19.4942 60.0311 19.667 59.9451 19.8365C59.7498 20.2228 60.3257 20.555 60.5243 20.1652C60.6103 19.9924 60.6997 19.8195 60.7857 19.6501C60.981 19.2637 60.4051 18.9316 60.2065 19.3213Z" fill="#46A358"/>
<path d="M43.0404 12.8787C43.1 13.2346 43.1628 13.5938 43.2224 13.9497C43.2522 14.1293 43.4773 14.2242 43.6328 14.1767C43.8214 14.1191 43.8876 13.9361 43.8545 13.7565C43.795 13.4006 43.7321 13.0414 43.6725 12.6855C43.6427 12.5059 43.4177 12.411 43.2621 12.4585C43.0735 12.5161 43.0073 12.6991 43.0404 12.8787Z" fill="#46A358"/>
<path d="M44.0265 15.1189C44.1787 15.4917 44.3343 15.8679 44.4865 16.2407C44.556 16.4102 44.7149 16.5254 44.8969 16.4678C45.0524 16.4203 45.1881 16.217 45.1186 16.0475C44.9664 15.6747 44.8108 15.2985 44.6586 14.9257C44.5891 14.7563 44.4303 14.641 44.2482 14.6987C44.0927 14.7461 43.957 14.9495 44.0265 15.1189Z" fill="#46A358"/>
<path d="M43.1228 16.3695C43.0467 16.8914 43.0533 17.3896 43.1427 17.9048C43.2155 18.3318 43.8476 18.1386 43.7781 17.7116C43.7119 17.3252 43.7119 16.9253 43.7682 16.5356C43.8244 16.1085 43.1824 15.9391 43.1228 16.3695Z" fill="#46A358"/>
<path d="M44.38 18.3283C44.4925 18.6469 44.6017 18.9689 44.7143 19.2875C44.8566 19.6976 45.492 19.5078 45.3497 19.0943C45.2372 18.7757 45.128 18.4537 45.0154 18.1352C44.8731 17.7251 44.2377 17.9149 44.38 18.3283Z" fill="#46A358"/>
<path d="M42.8418 19.684C42.8485 20.0602 42.8584 20.4364 42.865 20.8126C42.8749 21.2498 43.5368 21.2363 43.5269 20.7991C43.5203 20.4229 43.5104 20.0467 43.5037 19.6705C43.4971 19.2333 42.8352 19.2468 42.8418 19.684Z" fill="#46A358"/>
<path d="M44.0831 20.9583C44.0897 21.2972 44.0964 21.6362 44.103 21.9751C44.1129 22.4123 44.7748 22.3987 44.7649 21.9615C44.7583 21.6226 44.7516 21.2837 44.745 20.9448C44.7351 20.5076 44.0732 20.5211 44.0831 20.9583Z" fill="#46A358"/>
<path d="M45.9328 21.6294C46.0652 22.0225 46.2009 22.4156 46.3333 22.8088C46.4723 23.2189 47.1077 23.0291 46.9687 22.6156C46.8363 22.2225 46.7006 21.8293 46.5683 21.4362C46.4293 21.0261 45.7938 21.2159 45.9328 21.6294Z" fill="#46A358"/>
<path d="M46.6573 25.0049C46.697 25.2116 46.74 25.4184 46.7798 25.6251C46.8162 25.8047 47.0313 25.903 47.1901 25.8522C47.3755 25.7945 47.4483 25.6115 47.4119 25.4319C47.3722 25.2252 47.3291 25.0184 47.2894 24.8117C47.253 24.6321 47.0379 24.5338 46.879 24.5846C46.697 24.6389 46.6209 24.8253 46.6573 25.0049Z" fill="#46A358"/>
<path d="M44.8409 25.0422C44.9502 25.3607 45.0296 25.6861 45.066 26.0216C45.0858 26.2046 45.2149 26.3571 45.4036 26.3538C45.569 26.3504 45.7478 26.1911 45.7279 26.0081C45.6849 25.6115 45.6054 25.2252 45.4764 24.849C45.3341 24.4389 44.6986 24.6287 44.8409 25.0422Z" fill="#46A358"/>
<path d="M43.1426 23.6899C43.1492 23.9543 43.1526 24.2187 43.1592 24.4796C43.1691 24.9168 43.831 24.9033 43.8211 24.4661C43.8145 24.2017 43.8111 23.9374 43.8045 23.6764C43.7946 23.2392 43.136 23.2528 43.1426 23.6899Z" fill="#46A358"/>
<path d="M43.9404 27.7399C43.9669 28.0789 44.0298 28.411 44.139 28.7296C44.2813 29.1396 44.9167 28.9499 44.7744 28.5364C44.6818 28.272 44.6222 28.0043 44.6023 27.7264C44.5725 27.2926 43.9106 27.3061 43.9404 27.7399Z" fill="#46A358"/>
<path d="M45.3898 30.6242C45.4494 30.8309 45.5089 31.0376 45.5685 31.241C45.6877 31.6579 46.3231 31.4681 46.2039 31.0478C46.1444 30.8411 46.0848 30.6377 46.0252 30.431C45.9061 30.0141 45.2707 30.2039 45.3898 30.6242Z" fill="#46A358"/>
<path d="M46.1676 28.0078C46.2073 28.1569 46.247 28.306 46.2867 28.4585C46.3993 28.8788 47.0347 28.6856 46.9222 28.2654C46.8824 28.1162 46.8427 27.9671 46.803 27.8146C46.6905 27.3943 46.0551 27.5875 46.1676 28.0078Z" fill="#46A358"/>
<path d="M44.2914 33.6438C44.3742 33.9793 44.4536 34.3182 44.5363 34.6537C44.6389 35.0774 45.2744 34.8842 45.1718 34.4605C45.089 34.125 45.0096 33.7861 44.9269 33.4506C44.8243 33.0269 44.1888 33.2201 44.2914 33.6438Z" fill="#46A358"/>
<path d="M45.9357 38.5785C45.9953 38.7276 46.0515 38.8767 46.1111 39.0258C46.1773 39.1953 46.3395 39.3105 46.5215 39.2529C46.6803 39.2055 46.8094 39.0021 46.7432 38.8327C46.6837 38.6835 46.6274 38.5344 46.5678 38.3853C46.5016 38.2158 46.3395 38.1006 46.1574 38.1582C45.9986 38.2057 45.8695 38.409 45.9357 38.5785Z" fill="#46A358"/>
<path d="M67.4811 24.5338C67.3057 24.8964 67.1269 25.2557 66.9515 25.6183C66.7596 26.0081 67.3388 26.3402 67.5307 25.9471C67.7061 25.5844 67.8848 25.2252 68.0602 24.8626C68.2522 24.4728 67.673 24.1441 67.4811 24.5338Z" fill="#46A358"/>
<path d="M68.4078 25.3845C68.3251 25.7268 68.239 26.0657 68.1563 26.408C68.0504 26.8316 68.6924 26.9977 68.7983 26.5741C68.8811 26.2318 68.9671 25.8929 69.0499 25.5506C69.1524 25.1303 68.5104 24.9642 68.4078 25.3845Z" fill="#46A358"/>
<path d="M67.5931 28.6246C67.5104 28.9093 67.4277 29.1939 67.3416 29.4786C67.2192 29.8989 67.8612 30.0616 67.9837 29.6447C68.0664 29.36 68.1491 29.0753 68.2352 28.7906C68.3543 28.3738 67.7123 28.2077 67.5931 28.6246Z" fill="#46A358"/>
<path d="M67.0374 27.252C66.9679 27.3841 66.895 27.5197 66.8255 27.6519C66.6204 28.0348 67.1995 28.367 67.4047 27.9806C67.4742 27.8484 67.547 27.7129 67.6165 27.5807C67.8217 27.2011 67.2425 26.869 67.0374 27.252Z" fill="#46A358"/>
<path d="M68.6727 27.4146C68.6429 27.679 68.6131 27.9433 68.5833 28.2077C68.5635 28.3907 68.633 28.5703 68.8216 28.6211C68.9772 28.6618 69.2022 28.5601 69.2254 28.3771C69.2552 28.1128 69.285 27.8484 69.3148 27.5841C69.3346 27.401 69.2651 27.2214 69.0765 27.1706C68.9176 27.1299 68.6926 27.2316 68.6727 27.4146Z" fill="#46A358"/>
<path d="M65.5551 29.1736C65.4889 29.3905 65.3896 29.587 65.2705 29.7768C65.0388 30.1429 65.618 30.4716 65.8496 30.1056C66.0019 29.8683 66.1144 29.6108 66.1971 29.3396C66.2501 29.1668 66.1243 28.9702 65.9589 28.9262C65.7735 28.8821 65.608 28.9973 65.5551 29.1736Z" fill="#46A358"/>
<path d="M65.5351 32.0883C65.3928 32.3289 65.3233 32.6034 65.3366 32.8847C65.3564 33.3185 66.0183 33.3083 65.9985 32.8711C65.9918 32.7017 66.0249 32.5627 66.1143 32.4204C66.336 32.0442 65.7569 31.7154 65.5351 32.0883Z" fill="#46A358"/>
<path d="M67.2588 31.3426C67.1926 31.5697 67.1264 31.8002 67.0635 32.0272C66.9444 32.4475 67.5864 32.6102 67.7055 32.1933C67.7717 31.9662 67.8379 31.7358 67.9008 31.5087C68.0199 31.0885 67.3779 30.9258 67.2588 31.3426Z" fill="#46A358"/>
<path d="M66.7132 34.6842C66.6437 34.9316 66.5776 35.1757 66.5081 35.4231C66.3922 35.8433 67.0343 36.0094 67.1501 35.5891C67.2196 35.3417 67.2858 35.0977 67.3553 34.8503C67.4711 34.4334 66.8291 34.2674 66.7132 34.6842Z" fill="#46A358"/>
<path d="M68.8114 29.8718C68.7949 30.0243 68.7816 30.1734 68.7651 30.3259C68.7452 30.5089 68.9405 30.6614 69.1026 30.658C69.3012 30.6546 69.4071 30.4954 69.427 30.3123C69.4435 30.1598 69.4568 30.0107 69.4733 29.8582C69.4932 29.6752 69.2979 29.5227 69.1357 29.5261C68.9372 29.5328 68.8313 29.6887 68.8114 29.8718Z" fill="#46A358"/>
<path d="M64.655 36.65C64.6219 36.7652 64.5855 36.8771 64.5524 36.9923C64.4266 37.4092 65.0687 37.5752 65.1944 37.1584C65.2275 37.0431 65.2639 36.9313 65.297 36.8161C65.4228 36.3992 64.7807 36.2365 64.655 36.65Z" fill="#46A358"/>
<path d="M64.1216 40.1103C64.0521 40.3001 63.9792 40.4899 63.9097 40.6797C63.8469 40.8491 63.9892 41.0491 64.148 41.0931C64.34 41.144 64.4856 41.0186 64.5518 40.8491C64.6213 40.6593 64.6941 40.4695 64.7636 40.2798C64.8265 40.1103 64.6842 39.9103 64.5253 39.8663C64.3334 39.8154 64.1877 39.9375 64.1216 40.1103Z" fill="#46A358"/>
<path d="M66.7267 38.731C66.73 38.8428 66.73 38.958 66.7333 39.0699C66.7432 39.5071 67.4051 39.4935 67.3952 39.0563C67.3919 38.9445 67.3919 38.8292 67.3886 38.7174C67.3786 38.2802 66.7167 38.2938 66.7267 38.731Z" fill="#46A358"/>
<path d="M65.4921 43.2214C65.4755 43.3739 65.4623 43.523 65.4457 43.6756C65.4259 43.8586 65.6211 44.0111 65.7833 44.0077C65.9819 44.0043 66.0878 43.845 66.1076 43.662C66.1242 43.5095 66.1374 43.3604 66.154 43.2079C66.1738 43.0248 65.9786 42.8723 65.8164 42.8757C65.6211 42.8791 65.5119 43.0384 65.4921 43.2214Z" fill="#46A358"/>
<path d="M35.2594 29.0888C35.3157 29.2752 35.3752 29.465 35.4315 29.6514C35.5572 30.0683 36.1927 29.8751 36.0669 29.4582C36.0106 29.2718 35.9511 29.082 35.8948 28.8956C35.7657 28.4788 35.1303 28.672 35.2594 29.0888Z" fill="#46A358"/>
<path d="M35.9415 28.3195C36.1632 28.6008 36.3883 28.8821 36.61 29.16C36.7226 29.3024 36.9641 29.2719 37.0767 29.1499C37.2124 29.0041 37.1793 28.8143 37.0667 28.672C36.845 28.3907 36.62 28.1094 36.3982 27.8315C36.2857 27.6891 36.0441 27.7197 35.9316 27.8417C35.7959 27.984 35.829 28.1772 35.9415 28.3195Z" fill="#46A358"/>
<path d="M37.212 30.7055C37.4039 30.9835 37.5959 31.2614 37.7845 31.5359C38.0294 31.8917 38.5954 31.5393 38.3504 31.1834C38.1585 30.9055 37.9665 30.6276 37.7779 30.3531C37.5297 29.9972 36.9638 30.3463 37.212 30.7055Z" fill="#46A358"/>
<path d="M36.3981 31.5155C36.5503 31.7764 36.7026 32.0374 36.8548 32.2984C37.0732 32.6712 37.6392 32.3187 37.4207 31.9459C37.2685 31.6849 37.1163 31.424 36.964 31.163C36.7423 30.7868 36.1797 31.1393 36.3981 31.5155Z" fill="#46A358"/>
<path d="M37.8805 34.3115C38.0725 34.664 38.2677 35.0165 38.4597 35.3689C38.6682 35.7485 39.2341 35.396 39.0256 35.0165C38.8337 34.664 38.6384 34.3115 38.4465 33.9591C38.2346 33.5795 37.672 33.9319 37.8805 34.3115Z" fill="#46A358"/>
<path d="M38.4665 33.2845C38.5989 33.4879 38.7313 33.6946 38.8637 33.898C39.0987 34.2606 39.6646 33.9081 39.4296 33.5455C39.2972 33.3422 39.1649 33.1354 39.0325 32.9321C38.7942 32.5694 38.2283 32.9185 38.4665 33.2845Z" fill="#46A358"/>
<path d="M38.7742 31.8612C38.8834 32.1019 39.0687 32.2883 39.2905 32.4238C39.6611 32.6441 39.9822 32.051 39.6115 31.8307C39.4791 31.7528 39.3997 31.6477 39.3368 31.5088C39.2607 31.3427 39.0224 31.3088 38.8801 31.3969C38.7179 31.502 38.6981 31.6952 38.7742 31.8612Z" fill="#46A358"/>
<path d="M36.2922 33.6404C36.3353 33.8268 36.375 34.0132 36.418 34.203C36.4577 34.3826 36.6662 34.4809 36.8284 34.43C37.0104 34.3758 37.0898 34.186 37.0501 34.0098C37.0071 33.8234 36.9674 33.637 36.9244 33.4472C36.8846 33.2676 36.6761 33.1693 36.514 33.2201C36.3319 33.2744 36.2525 33.4642 36.2922 33.6404Z" fill="#46A358"/>
<path d="M38.38 37.182C38.5322 37.5006 38.6845 37.8192 38.8334 38.1344C38.9128 38.3005 39.1478 38.3343 39.2901 38.2462C39.4556 38.1446 39.4787 37.9446 39.3993 37.7785C39.2471 37.46 39.0948 37.1414 38.9459 36.8262C38.8665 36.6601 38.6315 36.6262 38.4892 36.7143C38.3237 36.8194 38.3006 37.0194 38.38 37.182Z" fill="#46A358"/>
<path d="M40.8523 36.223C40.9682 36.4467 41.0807 36.6704 41.1965 36.8941C41.3951 37.2804 41.9577 36.9246 41.7625 36.5416C41.6466 36.3179 41.5341 36.0943 41.4183 35.8706C41.2164 35.4842 40.6538 35.8367 40.8523 36.223Z" fill="#46A358"/>
<path d="M41.6073 41.0695C41.7033 41.2559 41.7993 41.4423 41.8985 41.6253C42.1004 42.0116 42.663 41.6558 42.4645 41.2728C42.3685 41.0864 42.2725 40.9 42.1732 40.717C41.9714 40.3306 41.4054 40.6831 41.6073 41.0695Z" fill="#46A358"/>
<path d="M42.7818 39.3512C42.8943 39.5376 43.0101 39.724 43.1227 39.9104C43.3477 40.2798 43.9136 39.9273 43.6886 39.5579C43.5761 39.3715 43.4602 39.1851 43.3477 38.9987C43.1193 38.6293 42.5534 38.9818 42.7818 39.3512Z" fill="#46A358"/>
<path d="M44.0994 44.5772C44.1921 44.7466 44.288 44.9127 44.3807 45.0822C44.5925 45.4617 45.1551 45.1059 44.9466 44.7297C44.854 44.5602 44.758 44.3942 44.6653 44.2247C44.4535 43.8451 43.8876 44.1976 44.0994 44.5772Z" fill="#46A358"/>
<path d="M33.4263 42.4828C33.648 42.5912 33.873 42.6963 34.0948 42.8047C34.4787 42.9911 34.803 42.398 34.4158 42.2116C34.1941 42.1032 33.969 41.9981 33.7473 41.8897C33.3667 41.7066 33.0424 42.2964 33.4263 42.4828Z" fill="#46A358"/>
<path d="M35.5342 43.4688C35.7791 43.6484 36.024 43.8315 36.2656 44.0111C36.4112 44.1195 36.6363 44.028 36.7157 43.8789C36.8117 43.7027 36.7322 43.5264 36.5866 43.418C36.3417 43.2384 36.0968 43.0554 35.8552 42.8757C35.7096 42.7673 35.4845 42.8588 35.4051 43.0079C35.3125 43.1841 35.3919 43.3604 35.5342 43.4688Z" fill="#46A358"/>
<path d="M35.21 42.4319C35.3788 42.4692 35.5343 42.5268 35.6866 42.6149C36.0606 42.825 36.3816 42.2319 36.0076 42.0218C35.809 41.91 35.5939 41.8253 35.3722 41.7744C34.9585 41.6795 34.793 42.337 35.21 42.4319Z" fill="#46A358"/>
<path d="M37.1491 43.879C37.298 43.9874 37.4469 44.0993 37.5959 44.2077C37.7415 44.3128 37.9665 44.2247 38.046 44.0755C38.1419 43.8993 38.0625 43.7197 37.9169 43.6146C37.768 43.5062 37.619 43.3943 37.4701 43.2859C37.3245 43.1808 37.0994 43.2689 37.02 43.418C36.9273 43.5943 37.0035 43.7705 37.1491 43.879Z" fill="#46A358"/>
<path d="M37.1029 44.8923C37.179 45.0042 37.2551 45.116 37.3313 45.2279C37.5728 45.5837 38.1388 45.2347 37.8972 44.8754C37.8211 44.7636 37.7449 44.6517 37.6688 44.5399C37.4272 44.1806 36.858 44.5331 37.1029 44.8923Z" fill="#46A358"/>
<path d="M38.6018 45.438C38.7507 45.5667 38.8996 45.6955 39.0519 45.8243C39.1876 45.9429 39.3894 45.9531 39.5185 45.8141C39.6376 45.6887 39.6476 45.4515 39.5086 45.3363C39.3596 45.2075 39.2107 45.0787 39.0585 44.9499C38.9228 44.8313 38.7209 44.8211 38.5918 44.9601C38.4727 45.0821 38.4628 45.3193 38.6018 45.438Z" fill="#46A358"/>
<path d="M72.7629 35.4537C72.4088 35.3859 72.0579 35.3927 71.7071 35.4842C71.2935 35.5926 71.4821 36.2433 71.8958 36.1349C72.1274 36.0739 72.3624 36.0637 72.5974 36.1112C73.0177 36.1925 73.1799 35.535 72.7629 35.4537Z" fill="#46A358"/>
<path d="M70.4796 36.1552C70.3539 36.2534 70.2248 36.3483 70.099 36.4466C69.9567 36.5551 69.8905 36.7449 69.9898 36.9143C70.0759 37.06 70.3009 37.138 70.4465 37.0262C70.5723 36.9279 70.7014 36.833 70.8271 36.7347C70.9694 36.6262 71.0356 36.4365 70.9363 36.267C70.8503 36.1213 70.6253 36.0467 70.4796 36.1552Z" fill="#46A358"/>
<path d="M70.5857 35.823C71.0126 35.8129 70.9994 35.1351 70.5724 35.1452C70.1455 35.1554 70.1588 35.8332 70.5857 35.823Z" fill="#46A358"/>
</g>
<g clip-path="url(#clip1_157_523)">
<path d="M37.3854 49.3258C35.0442 55.5563 33.3966 62.0672 32.8564 68.7535C32.3961 74.4686 32.5362 80.6324 35.5578 85.6182C35.9046 86.1897 36.7584 85.6427 36.4115 85.0677C33.38 80.0679 33.3866 73.7954 33.9136 68.0838C34.5005 61.7201 36.1281 55.5177 38.3559 49.5853C38.5893 48.9577 37.6188 48.7052 37.3854 49.3258Z" fill="#727272"/>
<path d="M67.7885 48.3615C73.1146 52.5689 73.1213 60.2825 73.6949 66.6146C73.9851 69.8088 74.3853 73.0134 74.5254 76.2215C74.6554 79.1527 74.422 82.2662 72.2141 84.3418C71.7339 84.7941 72.4576 85.5199 72.9345 85.0711C74.8789 83.2444 75.4792 80.6288 75.5459 77.9746C75.6426 74.195 75.0323 70.3522 74.6921 66.5971C74.0951 59.9985 74.0218 51.9834 68.4789 47.6042C67.9719 47.201 67.2749 47.9548 67.7885 48.3615Z" fill="#727272"/>
<path d="M35.7584 85.8285C38.5832 86.8978 41.4714 87.1643 44.443 87.4273C47.7313 87.7183 51.0497 88.1566 54.3548 88.0338C57.7099 87.9111 61.075 87.4097 64.41 87.0311C67.3282 86.698 70.2231 86.2772 72.9445 85.0571C73.5281 84.7941 73.2513 83.7809 72.6577 84.0473C69.8362 85.3131 66.8413 85.7057 63.8164 86.0423C60.6681 86.393 57.4998 86.8663 54.3348 86.982C51.2332 87.0977 48.1249 86.7015 45.0366 86.4315C41.9583 86.158 38.9367 85.9196 36.0052 84.8117C35.3982 84.5768 35.1581 85.6006 35.7584 85.8285Z" fill="#727272"/>
<path d="M37.6263 49.9149C39.9542 50.9141 42.3321 51.7977 44.8434 52.1097C47.4548 52.4323 50.1162 51.9695 52.7442 52.0396C54.2017 52.0782 55.5123 52.285 56.9831 52.0642C58.2504 51.8713 59.5178 51.6048 60.7484 51.2367C63.2997 50.4724 65.771 49.4065 68.2757 48.4879C68.8793 48.267 68.5992 47.2572 67.9888 47.4781C63.0863 49.2767 58.4906 51.3769 53.1978 51.0158C50.9966 50.865 48.8055 51.2051 46.611 51.1841C43.6561 51.1525 40.8147 50.1568 38.1066 48.9963C37.5229 48.7438 37.0294 49.6589 37.6263 49.9149Z" fill="#727272"/>
<path d="M7.66384 53.0809C13.2668 54.0065 18.4795 56.7939 22.3849 61.1381C26.1635 65.342 28.2879 70.8817 32.4101 74.7841C32.887 75.2364 33.584 74.479 33.1038 74.0267C28.7348 69.8895 26.5504 63.9044 22.3482 59.6024C18.4128 55.5738 13.3235 52.9547 7.91064 52.0606C7.27697 51.9554 7.02684 52.9757 7.66384 53.0809Z" fill="#727272"/>
<path d="M8.5371 51.1981C13.6231 49.9779 19.0292 50.7037 23.5983 53.3929C27.2435 55.5387 30.2351 58.9292 34.5874 59.392C35.2277 59.4586 35.201 58.4067 34.5674 58.3401C29.6848 57.8212 26.163 53.1966 21.7607 51.2962C17.4684 49.445 12.7626 49.1084 8.25362 50.1883C7.62329 50.339 7.9101 51.3488 8.5371 51.1981Z" fill="#727272"/>
<path d="M7.7236 50.4933C7.34006 51.0473 7.09327 51.6959 7.00656 52.3726C6.96987 52.6566 7.0866 52.9336 7.37008 53.0107C7.60687 53.0774 7.94038 52.9126 7.97706 52.6286C8.05377 52.0255 8.25721 51.4961 8.59739 51.0017C8.75747 50.7703 8.6174 50.4162 8.40395 50.2865C8.14715 50.1357 7.88035 50.2654 7.7236 50.4933Z" fill="#727272"/>
<path d="M71.8108 51.4539C73.8785 47.292 80.4486 46.7556 84.1572 48.663C88.176 50.7316 90.0303 55.7419 88.3828 60.1246C86.9487 63.9428 83.2634 65.8116 80.2319 68.0135C78.9545 68.9426 77.5338 69.9875 76.65 71.3584C75.7262 72.7924 75.8462 74.6156 74.9324 76.0461C74.5722 76.6106 75.4494 77.1155 75.8062 76.558C76.3832 75.657 76.5499 74.6963 76.8067 73.6654C77.1703 72.2244 77.8973 71.2988 78.9412 70.3556C80.7388 68.7323 82.8466 67.5577 84.7609 66.1026C88.1493 63.5256 90.5272 59.8652 89.8969 55.2791C89.3199 51.1033 86.1249 47.6497 82.1795 46.8888C78.2041 46.121 72.9647 46.8608 70.9337 50.9455C70.6369 51.5415 71.5106 52.0534 71.8108 51.4539Z" fill="#727272"/>
<path d="M72.8242 54.1012C74.2082 51.1981 77.3599 50.4478 80.2214 50.6792C82.129 50.8334 83.3063 51.6223 84.3035 53.3439C85.4074 55.2442 85.3541 56.8535 84.7304 58.8801C83.7499 62.0567 81.9823 63.5293 79.2642 65.0194C77.4833 65.9941 74.7652 67.2704 74.0548 69.4267C73.8447 70.0683 74.8152 70.3207 75.0253 69.6861C75.6723 67.7227 78.8473 66.4464 80.4815 65.5383C81.8989 64.7529 83.2263 63.8869 84.1834 62.502C85.6976 60.3141 86.9416 56.7413 85.8443 54.1503C84.5036 50.9807 82.4525 49.5747 79.1775 49.5993C76.2627 49.6203 73.3245 50.7142 71.9537 53.5893C71.6636 54.1923 72.5374 54.7043 72.8242 54.1012Z" fill="#727272"/>
<path d="M54.3076 61.7096C51.3661 62.1689 48.8814 64.4689 48.5846 67.6841C48.3011 70.7485 50.2688 74.7385 53.6106 74.5036C56.6588 74.2897 59.3669 71.1833 59.6471 68.0768C59.9572 64.6583 57.5193 61.678 54.2075 61.8288C53.5639 61.8568 53.5839 62.9087 54.2276 62.8807C57.1324 62.7474 59.1335 65.5383 58.5898 68.4765C58.1496 70.8537 55.9685 73.2519 53.5906 73.4553C50.669 73.7042 49.1783 69.8158 49.6418 67.2914C50.0854 64.8722 52.0564 63.1191 54.3276 62.7649C54.9546 62.6633 54.9446 61.6079 54.3076 61.7096Z" fill="#727272"/>
<path d="M54.8815 62.1689C54.7048 59.939 58.0365 56.5485 59.7041 59.129C60.221 59.9284 60.7213 61.3484 60.5078 62.3337C60.2777 63.389 59.2938 64.1779 58.5401 64.8266C58.0432 65.2543 58.7702 65.9801 59.2605 65.5558C60.4478 64.5355 61.6684 63.3119 61.555 61.5623C61.4616 60.1318 60.7079 58.2455 59.5206 57.4601C56.986 55.7806 53.6776 59.6269 53.881 62.1934C53.9344 62.8631 54.9349 62.8456 54.8815 62.1689Z" fill="#727272"/>
<path d="M59.5269 65.7908C60.7809 65.0089 64.0259 65.2158 63.6891 67.4738C63.3689 69.6266 60.7175 69.7142 59.1467 69.7353C58.503 69.7423 58.523 70.7941 59.1667 70.7871C61.3712 70.7591 65.2265 70.0298 64.6763 66.7515C64.2427 64.178 60.7875 63.7783 59.0033 64.8932C58.4497 65.2403 58.9699 66.1379 59.5269 65.7908Z" fill="#727272"/>
<path d="M58.5198 70.9798C60.2741 71.7933 62.2484 74.209 60.5809 76.1584C58.6299 78.4374 55.8084 76.183 55.088 73.9846C54.8779 73.3465 53.9174 73.641 54.1275 74.2861C55.0613 77.1261 58.4264 79.5805 61.0211 77.1717C63.5424 74.8331 61.538 71.2358 59.0067 70.0577C58.4231 69.7877 57.9328 70.7063 58.5198 70.9798Z" fill="#727272"/>
<path d="M53.6472 74.2476C53.7372 76.0147 53.267 78.6443 51.0058 78.3287C49.9786 78.185 49.1882 77.2138 49.2348 76.1128C49.2749 75.1241 49.9385 73.9706 50.3021 73.066C50.5489 72.4489 49.6784 71.93 49.4283 72.5541C48.898 73.8794 47.9775 75.4256 48.3177 76.9228C48.5945 78.1359 49.505 79.1001 50.6723 79.342C53.6505 79.9626 54.7744 76.7334 54.6477 74.223C54.6143 73.5498 53.6138 73.5674 53.6472 74.2476Z" fill="#727272"/>
<path d="M50.1656 71.7583C48.3013 72.5682 45.4232 72.3613 44.7728 69.9035C44.4894 68.8236 44.8062 67.5474 45.77 66.9618C46.7072 66.3938 47.9178 66.5446 48.9383 66.6743C49.5687 66.755 49.8221 65.7347 49.1851 65.654C47.7711 65.4752 46.1669 65.3174 44.9496 66.2711C43.9391 67.0635 43.5288 68.4519 43.7223 69.7317C44.2225 73.038 47.9011 73.869 50.4491 72.7645C51.0428 72.5121 50.7626 71.4988 50.1656 71.7583Z" fill="#727272"/>
<path d="M49.5452 65.7732C47.861 64.8265 46.9805 61.3484 48.458 59.8442C50.399 57.8703 52.7835 60.6682 53.9575 62.1829C54.3644 62.7053 55.0514 61.9444 54.6512 61.4255C53.1171 59.448 49.7987 56.4222 47.5308 59.2727C45.8633 61.3729 46.8605 65.4576 49.0583 66.6953C49.6252 67.0144 50.1155 66.0957 49.5452 65.7732Z" fill="#727272"/>
<path d="M51.153 73.5043C50.3626 74.3037 49.849 76.4671 51.0629 77.1227C52.517 77.9116 53.1607 75.2294 53.3541 74.2617C53.4408 73.8199 52.7938 73.6481 52.7071 74.0899C52.6204 74.5281 52.5104 74.9594 52.3569 75.3801C52.2802 75.587 52.1969 75.7939 52.0968 75.9902C51.9434 76.2953 51.8533 76.4916 51.4998 76.4495C50.546 76.3268 51.1997 74.43 51.6366 73.9917C51.9434 73.6761 51.4631 73.1923 51.153 73.5043Z" fill="#727272"/>
<path d="M55.4514 73.5534C55.2813 74.5631 56.3685 75.3555 57.1456 75.7167C57.9327 76.0813 59.0299 76.204 59.7669 75.6325C60.4706 75.0856 60.3606 74.0933 60.0571 73.336C59.6435 72.3052 58.7931 71.6109 57.8093 71.2463C57.4024 71.0955 57.2423 71.7792 57.6458 71.9265C58.2395 72.1474 58.7731 72.519 59.15 73.059C59.28 73.2483 59.3801 73.4482 59.4635 73.6656C59.6569 74.1775 59.6869 74.4089 59.3434 74.8542C59.0499 75.2328 58.8965 75.3205 58.4496 75.324C58.1695 75.324 57.8793 75.2644 57.6158 75.1662C57.2123 75.0154 55.995 74.3493 56.0984 73.7322C56.1717 73.2834 55.5281 73.1081 55.4514 73.5534Z" fill="#727272"/>
<path d="M59.3208 69.0165C60.1579 69.2374 60.9917 68.8587 61.6954 68.3924C62.209 68.0523 62.886 67.4317 62.8259 66.713C62.7759 66.1134 62.209 65.8294 61.702 65.7663C60.8282 65.6541 59.9711 66.0503 59.2608 66.5482C58.9039 66.7971 59.2508 67.4002 59.6076 67.1477C59.9778 66.8848 60.3713 66.6534 60.8082 66.5377C61.2118 66.429 62.3857 66.2537 62.0289 67.1337C61.7154 67.9156 60.1946 68.5222 59.4842 68.3363C59.0673 68.2276 58.9039 68.9078 59.3208 69.0165Z" fill="#727272"/>
<path d="M56.2088 62.4705C56.1554 61.9376 56.2621 61.4081 56.629 61.0155C56.8958 60.7244 57.5428 60.3388 57.923 60.5632C58.2598 60.763 58.2365 61.6045 58.2365 61.9937C58.2332 62.5512 58.1198 63.0806 57.943 63.603C57.7996 64.0272 58.4466 64.1955 58.59 63.7748C58.8768 62.9263 58.9769 62.0357 58.8401 61.1417C58.7468 60.5281 58.6467 59.918 57.9897 59.8269C56.5356 59.62 55.405 61.04 55.5484 62.488C55.5851 62.9298 56.2521 62.9193 56.2088 62.4705Z" fill="#727272"/>
<path d="M50.016 64.816C49.4991 64.1323 49.0555 62.8911 49.2289 62.0111C49.3323 61.4782 49.4524 61.3239 49.9793 61.2678C50.5063 61.2117 50.6363 61.3765 51.0165 61.699C51.4034 62.0251 51.7803 62.3617 52.1638 62.6913C52.494 62.9753 52.9576 62.4739 52.624 62.1864C51.6836 61.373 50.1728 59.4972 48.9755 60.9242C48.0483 62.0321 48.672 64.1639 49.4457 65.1842C49.7092 65.5313 50.2828 65.1701 50.016 64.816Z" fill="#727272"/>
<path d="M48.8182 67.5473C47.5175 67.0004 45.82 68.217 46.0201 69.7527C46.2068 71.2078 48.438 71.7477 49.4419 70.9273C49.7754 70.6538 49.4319 70.0507 49.095 70.3277C48.5481 70.7765 47.1874 70.6573 46.7872 69.9876C46.2002 69.0164 47.6309 67.7928 48.4981 68.1609C48.8883 68.3257 49.2151 67.7156 48.8182 67.5473Z" fill="#727272"/>
</g>
<defs>
<clipPath id="clip0_157_523">
<rect width="44" height="50.759" fill="white" transform="translate(31)"/>
</clipPath>
<clipPath id="clip1_157_523">
<rect width="83" height="41.4359" fill="white" transform="translate(7 46.6155)"/>
</clipPath>
</defs>
</svg>
