<svg width="21" height="21" viewBox="0 0 21 21" fill="none" xmlns="http://www.w3.org/2000/svg">
<g clip-path="url(#clip0_119_59)">
<path d="M10.5 19.3873C10.2153 19.3873 9.94077 19.2842 9.72684 19.0968C8.91888 18.3903 8.13992 17.7264 7.45267 17.1408L7.44916 17.1377C5.43423 15.4207 3.69427 13.9378 2.48364 12.4771C1.13034 10.8441 0.5 9.29578 0.5 7.60434C0.5 5.96097 1.06351 4.44485 2.08661 3.33508C3.12192 2.21219 4.54251 1.59375 6.08716 1.59375C7.24164 1.59375 8.29892 1.95874 9.22955 2.6785C9.69922 3.04181 10.1249 3.48645 10.5 4.0051C10.8752 3.48645 11.3008 3.04181 11.7706 2.6785C12.7012 1.95874 13.7585 1.59375 14.913 1.59375C16.4575 1.59375 17.8782 2.21219 18.9135 3.33508C19.9366 4.44485 20.5 5.96097 20.5 7.60434C20.5 9.29578 19.8698 10.8441 18.5165 12.4769C17.3059 13.9378 15.5661 15.4205 13.5515 17.1374C12.863 17.724 12.0828 18.3889 11.273 19.0971C11.0592 19.2842 10.7846 19.3873 10.5 19.3873V19.3873ZM6.08716 2.76532C4.87363 2.76532 3.75882 3.24963 2.94781 4.12915C2.12476 5.02194 1.67142 6.25607 1.67142 7.60434C1.67142 9.02692 2.20013 10.2992 3.38559 11.7296C4.53137 13.1122 6.23563 14.5645 8.20889 16.2462L8.21255 16.2492C8.9024 16.8371 9.68442 17.5036 10.4983 18.2153C11.3171 17.5023 12.1003 16.8347 12.7916 16.2458C14.7647 14.5642 16.4688 13.1122 17.6146 11.7296C18.7999 10.2992 19.3286 9.02692 19.3286 7.60434C19.3286 6.25607 18.8752 5.02194 18.0522 4.12915C17.2413 3.24963 16.1264 2.76532 14.913 2.76532C14.024 2.76532 13.2078 3.04791 12.4872 3.60516C11.8449 4.10199 11.3975 4.73004 11.1352 5.16949C11.0003 5.39548 10.7629 5.53036 10.5 5.53036C10.2371 5.53036 9.99966 5.39548 9.86478 5.16949C9.60263 4.73004 9.15524 4.10199 8.51285 3.60516C7.79218 3.04791 6.97598 2.76532 6.08716 2.76532V2.76532Z" fill="#46A358"/>
</g>
<defs>
<clipPath id="clip0_119_59">
<rect width="20" height="20" fill="white" transform="translate(0.5 0.5)"/>
</clipPath>
</defs>
</svg>
