<svg width="83" height="95" viewBox="0 0 83 95" fill="none" xmlns="http://www.w3.org/2000/svg">
<ellipse cx="37" cy="55.0108" rx="37" ry="38.1327" fill="#46A358" fill-opacity="0.13"/>
<g clip-path="url(#clip0_157_406)">
<path d="M22.2485 42.4132C39.0212 40.6068 55.9379 43.3798 72.6695 40.8811C73.4511 40.763 73.1179 39.5432 72.3404 39.6614C55.7281 42.1389 38.906 39.3533 22.2485 41.147C21.4669 41.2315 21.4586 42.4976 22.2485 42.4132Z" fill="#727272"/>
<path d="M22.0836 41.1724C20.4462 41.6958 20.6519 43.8905 21.52 45.0554C22.9434 46.9632 26.14 47.0054 28.2258 46.8028C29.0116 46.7268 29.0157 45.4606 28.2258 45.5366C26.8764 45.6674 25.4776 45.6548 24.1653 45.258C23.4824 45.0512 22.7624 44.76 22.3716 44.1016C22.17 43.7597 21.7833 42.5948 22.4127 42.3964C23.1697 42.1516 22.8447 40.9276 22.0836 41.1724Z" fill="#727272"/>
<path d="M69.7811 41.2779C70.6492 41.2231 71.4884 41.0711 72.3523 40.9529C73.7223 40.763 74.4258 41.1429 74.6644 42.6201C74.8619 43.8483 74.109 44.207 73.0476 44.5531C72.5457 44.7177 72.0191 44.819 71.5007 44.9246C70.1143 45.2031 68.7238 45.3424 67.3127 45.393C66.5228 45.4226 66.5187 46.6888 67.3127 46.6592C69.7194 46.5706 76.4787 46.4778 76.2154 42.5737C76.1496 41.5987 75.2321 40.2523 74.3723 39.8134C73.0887 39.1549 71.0893 39.9273 69.777 40.0117C68.9912 40.0624 68.9871 41.3286 69.7811 41.2779Z" fill="#727272"/>
<path d="M24.0545 46.5325C23.8859 49.2127 20.9238 50.7279 19.3523 52.5681C18.1181 54.0157 17.1472 55.6829 16.4437 57.4598C14.9297 61.2668 14.6418 65.5339 15.4111 69.5477C16.9949 77.7822 23.059 84.5774 30.6328 87.4939C31.3774 87.7809 31.6983 86.5569 30.9619 86.2741C23.096 83.2437 16.9826 75.6508 16.2997 66.9436C15.9747 62.8073 16.8263 58.5023 19.0766 55.0203C20.9444 52.1333 25.0542 50.2847 25.2887 46.5325C25.3381 45.7222 24.1039 45.7222 24.0545 46.5325Z" fill="#727272"/>
<path d="M70.8225 45.9923C70.8225 49.3224 73.1798 51.4117 75.5782 53.273C77.6393 54.8684 79.2356 56.4216 80.2517 58.9244C81.1362 61.098 81.6258 63.4447 81.7368 65.7956C82.14 74.4437 77.2444 82.4714 69.7199 86.2488C69.0082 86.6076 69.6294 87.7007 70.3411 87.342C77.3308 83.8346 82.2593 76.706 82.9176 68.7205C83.2508 64.6814 82.5679 60.2328 80.5685 56.6917C78.3675 52.7876 72.0567 50.998 72.0525 45.9923C72.0567 45.1778 70.8225 45.1778 70.8225 45.9923Z" fill="#727272"/>
<path d="M30.2665 86.5654C29.4684 88.3845 30.9001 89.9545 32.6773 90.039C34.6068 90.136 36.6432 89.676 38.5768 89.5916C40.8189 89.4903 43.061 89.4861 45.3031 89.5198C53.671 89.6507 62.0347 90.3049 70.3655 89.14C70.6494 89.102 70.7934 88.7812 70.8181 88.528C70.8839 87.8189 70.8263 87.2955 70.6247 86.6287C70.3902 85.8521 69.2013 86.1855 69.4358 86.9663C69.6456 87.477 69.6949 88.0004 69.5839 88.528C69.7361 88.3254 69.8842 88.1228 70.0364 87.916C63.5404 88.8234 56.9869 88.5955 50.4538 88.3845C47.2861 88.2832 44.1142 88.1903 40.9464 88.2452C39.4983 88.2705 38.0502 88.3296 36.6021 88.4309C35.8122 88.4858 35.0264 88.5617 34.2406 88.6419C33.6606 88.701 30.4434 89.2117 31.328 87.1942C31.653 86.4641 30.5915 85.8225 30.2665 86.5654Z" fill="#727272"/>
<path d="M22.0799 53.1801C17.0526 59.5237 16.6617 68.3787 21.1748 75.1317C21.3969 75.4651 21.9317 75.1486 21.7096 74.8109C17.3611 68.3069 17.6614 59.7559 22.52 53.6233C22.7628 53.3152 22.3308 52.8636 22.0799 53.1801Z" fill="#727272"/>
<path d="M22.4131 77.4825C22.8163 78.0819 23.277 78.6348 23.7913 79.137C24.0793 79.4156 24.5153 78.9724 24.2274 78.6896C23.7501 78.2254 23.3223 77.7189 22.9438 77.166C22.7216 76.8326 22.1868 77.1449 22.4131 77.4825Z" fill="#727272"/>
<path d="M25.8647 81.125C26.2638 81.125 26.2638 80.4919 25.8647 80.4919C25.4657 80.4919 25.4657 81.125 25.8647 81.125Z" fill="#727272"/>
<path d="M69.6292 46.0262C69.3124 47.2417 69.0409 48.4657 69.5058 49.6812C69.9377 50.8081 70.814 51.8253 71.5586 52.7581C73.3441 54.9866 76.9973 57.2362 77.1701 60.3426C77.1907 60.7478 77.8078 60.752 77.7872 60.3426C77.6597 58.017 75.9894 56.5271 74.4508 55.0161C73.4593 54.0412 72.5254 53.0071 71.6697 51.9013C71.0938 51.1542 70.4437 50.365 70.1105 49.466C69.7032 48.3728 69.9377 47.2966 70.2216 46.1992C70.3244 45.8025 69.7279 45.6336 69.6292 46.0262Z" fill="#727272"/>
<path d="M77.4375 61.8114C77.5239 62.6218 77.6103 63.4321 77.6967 64.2425C77.7378 64.6435 78.359 64.6477 78.3138 64.2425C78.2274 63.4321 78.141 62.6218 78.0546 61.8114C78.0135 61.4105 77.3964 61.4062 77.4375 61.8114Z" fill="#727272"/>
<path d="M77.4951 65.9096C77.5404 66.146 77.5034 66.3697 77.417 66.5891C77.3553 66.7495 77.4869 66.9352 77.6309 66.9774C77.8078 67.0281 77.9477 66.9141 78.0094 66.758C78.1369 66.4288 78.1534 66.0869 78.0875 65.7408C78.0176 65.344 77.4211 65.5129 77.4951 65.9096Z" fill="#727272"/>
<path d="M50.7418 61.2795C52.2146 58.4094 54.9874 56.5313 58.2087 56.6959C62.0429 56.89 66.0746 60.3129 63.3882 64.3563C61.8125 66.7241 58.9821 68.2562 56.8963 70.1217C54.5801 72.1941 52.4614 74.4774 50.5073 76.917C50.0054 77.5416 50.8734 78.4406 51.3795 77.8117C54.358 74.0933 57.7273 70.949 61.4299 68.0114C63.9024 66.0446 66.6382 63.0606 65.1366 59.6039C63.8942 56.7423 60.4631 55.3368 57.571 55.4212C54.1646 55.5225 51.2437 57.5822 49.6721 60.6379C49.306 61.3597 50.3715 62.0012 50.7418 61.2795Z" fill="#727272"/>
<path d="M50.4499 60.2961C47.8128 57.2531 44.5217 54.1171 40.2514 54.345C37.0836 54.5139 34.356 56.9787 33.8994 60.2244C33.3358 64.1791 36.2155 67.6485 39.0213 69.9403C42.4688 72.7555 47.6689 73.7304 50.2483 77.5459C50.6968 78.2128 51.7664 77.5797 51.3138 76.9086C49.7053 74.5281 47.3644 73.3042 44.8796 72.0717C41.72 70.5059 38.6058 68.5686 36.5735 65.5466C34.3067 62.1828 34.681 57.0378 39.0748 55.8054C43.3739 54.6025 46.9942 58.2154 49.5736 61.1909C50.1043 61.8029 50.9765 60.9039 50.4499 60.2961Z" fill="#727272"/>
</g>
<g clip-path="url(#clip1_157_406)">
<path d="M46.4725 13.404C45.2836 15.623 43.4694 17.4007 41.141 18.321C40.2319 18.6825 39.0348 18.6615 39.1541 17.3797C39.2281 16.5812 40.0673 15.8877 40.6762 15.5137C41.7128 14.8749 43.0416 14.6648 44.1564 14.1689C44.8804 13.8453 44.2551 12.7568 43.5352 13.0804C41.5442 13.9671 39.3639 14.1773 38.2326 16.329C37.6279 17.4805 37.4304 19.0817 38.7921 19.7373C40.2689 20.4476 42.3011 19.3003 43.527 18.4934C45.2301 17.3755 46.5671 15.8499 47.5338 14.0386C47.9205 13.3283 46.8551 12.6895 46.4725 13.404Z" fill="#46A358"/>
<path d="M43.8971 12.8785C42.3997 13.0466 40.9146 13.055 39.4295 12.7692C38.8865 12.6642 38.3476 12.5213 37.821 12.349C37.3767 12.2145 36.9489 12.0506 36.5252 11.8531C35.8958 11.0377 35.9575 10.5839 36.7185 10.483C38.9482 8.72631 42.4326 10.5713 44.6211 11.4244C45.3657 11.7144 45.6866 10.4956 44.9502 10.2098C43.0455 9.46597 40.9557 8.34807 38.8618 8.58762C37.6606 8.7221 34.892 9.25584 34.5712 10.7982C33.8307 14.3704 42.1076 14.3452 43.8971 14.1435C44.6787 14.051 44.6869 12.7902 43.8971 12.8785Z" fill="#46A358"/>
<path d="M45.353 10.2308C43.4812 8.71364 41.8192 6.35176 41.9097 3.79237C41.9509 2.65346 42.6584 2.17015 43.6828 2.68287C44.2463 2.96445 44.6372 3.6831 44.9457 4.22524C45.6615 5.49443 45.9618 6.94433 46.2251 8.36902C46.3732 9.16332 47.5621 8.82711 47.414 8.03281C47.019 5.90629 46.4554 3.6915 44.9169 2.10291C44.0078 1.16573 42.4939 0.0898564 41.4243 1.35064C38.9231 4.29668 42.1977 9.26838 44.4808 11.1217C45.0979 11.6219 45.9782 10.7351 45.353 10.2308Z" fill="#46A358"/>
<path d="M47.3853 8.38199C47.6568 6.35633 48.5207 2.50252 50.7998 1.84691C52.9184 1.24174 52.7086 4.72151 52.1162 5.87302C51.5197 7.03295 50.3473 8.12143 49.4957 9.09223C48.9691 9.69321 49.8371 10.5884 50.3678 9.98319C51.5896 8.58792 53.4161 6.98672 53.6794 5.0241C53.8851 3.50275 53.774 1.20391 52.1326 0.531492C50.6352 -0.0820908 49.1543 1.31318 48.3027 2.41006C47.048 4.02387 46.4639 6.02432 46.1923 8.03738C46.0854 8.84008 47.2743 9.18469 47.3853 8.38199Z" fill="#46A358"/>
<path d="M50.4543 10.1428C51.89 8.91566 54.5557 8.06252 56.3082 9.16781C58.579 10.6051 55.362 11.4666 54.3007 11.5381C53.1653 11.6179 52.0298 11.5465 50.9027 11.412C50.1169 11.3196 50.1211 12.5803 50.9027 12.6728C52.7456 12.8913 55.2345 13.1729 56.9499 12.2399C58.0154 11.66 58.7806 10.2563 58.1265 9.07536C57.3942 7.75153 55.3332 7.43213 53.9962 7.46995C52.3384 7.52039 50.8451 8.176 49.5863 9.25187C48.9733 9.77299 49.8495 10.6639 50.4543 10.1428Z" fill="#46A358"/>
<path d="M50.5863 12.6306C51.8575 13.1097 53.1204 13.8326 53.8444 15.0513C54.7495 16.5811 54.77 19.3968 52.1372 18.8715C49.8212 18.4092 48.1468 15.896 47.6738 13.7149C47.501 12.9248 46.3121 13.2568 46.4849 14.0511C46.9045 15.9927 47.9535 17.7074 49.525 18.8967C50.7591 19.8339 52.9271 20.9518 54.3792 19.8885C55.8725 18.7959 55.8725 16.5348 55.1979 14.9799C54.3998 13.1475 52.7008 12.0843 50.9236 11.4118C50.1667 11.1345 49.8458 12.3532 50.5863 12.6306Z" fill="#46A358"/>
<path d="M38.1048 16.1021C34.5011 18.3211 31.8436 20.7922 31.2142 25.2386C30.5272 30.0674 31.6256 35.1147 32.6294 39.8175C32.798 40.6118 33.9869 40.2756 33.8183 39.4813C32.9297 35.3207 32.0205 31.0088 32.2962 26.7263C32.5965 22.0572 34.966 19.5062 38.7219 17.1948C39.4048 16.7745 38.7877 15.6818 38.1048 16.1021Z" fill="#46A358"/>
<path d="M54.009 14.6773C59.0483 15.0807 62.615 19.2161 63.9684 23.9525C65.4412 29.1091 64.6184 34.5389 63.8162 39.7333C63.6928 40.5276 64.8817 40.868 65.0051 40.0695C65.943 33.9757 66.8851 27.5037 64.4621 21.6284C62.6273 17.1778 58.818 13.8031 54.009 13.4165C53.215 13.3534 53.2191 14.6142 54.009 14.6773Z" fill="#46A358"/>
<path d="M39.3268 18.7161C33.3001 23.1961 35.2541 33.3244 36.4718 39.6199C36.624 40.4142 37.817 40.078 37.6607 39.2837C37.0231 35.9888 36.4307 32.6562 36.4924 29.2857C36.5541 26.0076 37.1588 21.8764 39.948 19.8045C40.5856 19.3296 39.9726 18.237 39.3268 18.7161Z" fill="#46A358"/>
<path d="M46.0941 14.6395C43.8521 18.1655 42.404 22.1075 41.8775 26.2849C41.6018 28.4745 41.5813 30.6935 41.8363 32.8873C42.112 35.2828 42.8648 37.5858 43.1445 39.9813C43.235 40.7756 44.4733 40.7882 44.3786 39.9813C43.8932 35.7997 42.6426 31.9501 42.9717 27.6718C43.3132 23.2296 44.7941 19.0018 47.1637 15.2741C47.5915 14.5932 46.526 13.9629 46.0941 14.6395Z" fill="#46A358"/>
<path d="M49.1088 18.5353C50.9477 21.6369 51.3344 25.146 51.6552 28.6889C51.9885 32.3746 52.26 36.0645 52.4903 39.7586C52.5397 40.5655 53.7738 40.5697 53.7245 39.7586C53.4653 35.577 53.1732 31.3953 52.7536 27.2263C52.4245 23.9525 51.8692 20.7459 50.1743 17.8965C49.7629 17.2073 48.6933 17.8377 49.1088 18.5353Z" fill="#46A358"/>
<path d="M54.7249 19.1238C59.32 25.0284 59.4722 32.568 59.3077 39.7628C59.2912 40.5739 60.5254 40.5739 60.5418 39.7628C60.7146 32.1729 60.4184 24.4317 55.5971 18.2328C55.1034 17.5982 54.2354 18.4976 54.7249 19.1238Z" fill="#46A358"/>
<path d="M46.9532 20.6619C46.8833 20.9434 46.8174 21.2208 46.7475 21.5024C46.6529 21.8974 47.2453 22.0655 47.344 21.6705C47.4139 21.3889 47.4798 21.1115 47.5497 20.83C47.6443 20.4391 47.0519 20.271 46.9532 20.6619Z" fill="#46A358"/>
<path d="M48.2861 22.8513C48.2861 23.1665 48.2861 23.4817 48.2861 23.7969C48.2861 24.2046 48.9032 24.2046 48.9032 23.7969C48.9032 23.4817 48.9032 23.1665 48.9032 22.8513C48.9032 22.4437 48.2861 22.4437 48.2861 22.8513Z" fill="#46A358"/>
<path d="M45.3079 24.8477C45.275 25.3016 45.238 25.7597 45.2051 26.2136C45.1763 26.617 45.7933 26.617 45.8221 26.2136C45.8551 25.7597 45.8921 25.3016 45.925 24.8477C45.9538 24.4443 45.3367 24.4443 45.3079 24.8477Z" fill="#46A358"/>
<path d="M49.3145 27.054C49.3145 27.4742 49.3145 27.8945 49.3145 28.3147C49.3145 28.7224 49.9315 28.7224 49.9315 28.3147C49.9315 27.8945 49.9315 27.4742 49.9315 27.054C49.9315 26.6463 49.3145 26.6463 49.3145 27.054Z" fill="#46A358"/>
<path d="M46.9492 29.3654C46.9492 29.8193 46.9492 30.2774 46.9492 30.7313C46.9492 31.1389 47.5663 31.1389 47.5663 30.7313C47.5663 30.2774 47.5663 29.8193 47.5663 29.3654C47.5663 28.9577 46.9492 28.9577 46.9492 29.3654Z" fill="#46A358"/>
<path d="M45.6123 33.9883C45.6123 34.6187 45.6123 35.2491 45.6123 35.8795C45.6123 36.2871 46.2294 36.2871 46.2294 35.8795C46.2294 35.2491 46.2294 34.6187 46.2294 33.9883C46.2294 33.5806 45.6123 33.5806 45.6123 33.9883Z" fill="#46A358"/>
<path d="M43.7821 29.8656C43.852 30.2858 43.926 30.7061 43.996 31.1263C44.0618 31.5256 44.6583 31.3575 44.5925 30.9582C44.5225 30.538 44.4485 30.1177 44.3786 29.6974C44.3086 29.3024 43.7121 29.4705 43.7821 29.8656Z" fill="#46A358"/>
<path d="M48.5006 36.0897C48.5335 36.51 48.5705 36.9302 48.6035 37.3505C48.6364 37.7539 49.2534 37.7539 49.2205 37.3505C49.1876 36.9302 49.1506 36.51 49.1177 36.0897C49.0848 35.6862 48.4636 35.682 48.5006 36.0897Z" fill="#46A358"/>
<path d="M50.347 31.3617C50.3799 31.782 50.4169 32.2022 50.4498 32.6225C50.4827 33.0217 51.0998 33.0259 51.0669 32.6225C51.034 32.2022 50.9969 31.782 50.964 31.3617C50.9311 30.9582 50.3141 30.954 50.347 31.3617Z" fill="#46A358"/>
<path d="M57.4316 17.2914C57.9088 17.7159 58.386 18.1404 58.8632 18.5606C59.1635 18.8254 59.5995 18.3799 59.2992 18.1151C58.822 17.6907 58.3448 17.2662 57.8676 16.846C57.5714 16.5812 57.1313 17.0225 57.4316 17.2914Z" fill="#46A358"/>
<path d="M57.6901 20.8005C57.9575 21.2922 58.229 21.7881 58.4964 22.2798C58.6898 22.6329 59.2246 22.3177 59.0312 21.9604C58.7638 21.4687 58.4923 20.9728 58.2249 20.4811C58.0275 20.1281 57.4968 20.4475 57.6901 20.8005Z" fill="#46A358"/>
<path d="M60.1627 21.0064C60.4671 21.4309 60.7715 21.8553 61.0759 22.2756C61.3063 22.5992 61.8452 22.284 61.6107 21.9562C61.3063 21.5317 61.0019 21.1072 60.6975 20.687C60.463 20.3676 59.9282 20.6786 60.1627 21.0064Z" fill="#46A358"/>
<path d="M61.6846 26.5035C61.7874 27.239 61.8944 27.9744 61.9972 28.7099C62.0548 29.1091 62.6472 28.941 62.5937 28.5418C62.4909 27.8063 62.3839 27.0709 62.2811 26.3354C62.2194 25.9362 61.627 26.1085 61.6846 26.5035Z" fill="#46A358"/>
<path d="M59.6114 24.6165C59.7142 24.9653 59.8171 25.3183 59.9199 25.6672C60.0351 26.0538 60.6275 25.8899 60.5164 25.4991C60.4136 25.1502 60.3107 24.7972 60.2079 24.4484C60.0927 24.0618 59.4962 24.2257 59.6114 24.6165Z" fill="#46A358"/>
<path d="M62.8825 32.5174C62.9278 33.0175 62.9196 33.5176 62.8414 34.0135C62.7797 34.4086 63.3721 34.5809 63.4379 34.1816C63.5243 33.6269 63.5531 33.0763 63.5037 32.5174C63.4626 32.1181 62.8455 32.1139 62.8825 32.5174Z" fill="#46A358"/>
<path d="M61.4502 34.5136C61.4502 34.9002 61.4502 35.2827 61.4502 35.6693C61.4502 36.077 62.0673 36.077 62.0673 35.6693C62.0673 35.2827 62.0673 34.9002 62.0673 34.5136C62.0673 34.1059 61.4502 34.1059 61.4502 34.5136Z" fill="#46A358"/>
<path d="M62.0879 23.982C62.2565 24.4023 62.4293 24.8226 62.598 25.2428C62.6638 25.4025 62.8037 25.5118 62.9764 25.4614C63.1204 25.4235 63.2562 25.2302 63.1904 25.0747C63.0217 24.6544 62.8489 24.2342 62.6803 23.8139C62.6144 23.6542 62.4746 23.545 62.3018 23.5954C62.1578 23.6332 62.0262 23.8265 62.0879 23.982Z" fill="#46A358"/>
<path d="M60.9365 31.2566C60.9365 31.5003 60.9365 31.7483 60.9365 31.992C60.9365 32.3997 61.5536 32.3997 61.5536 31.992C61.5536 31.7483 61.5536 31.5003 61.5536 31.2566C61.5536 30.8489 60.9365 30.8489 60.9365 31.2566Z" fill="#46A358"/>
<path d="M62.1709 38.296C62.1544 38.5944 62.0845 38.8802 61.9775 39.1576C61.9158 39.3173 62.0475 39.5022 62.1914 39.5442C62.3683 39.5946 62.5082 39.4812 62.5699 39.3257C62.7015 38.9937 62.7674 38.6533 62.7879 38.296C62.8126 37.8884 62.1955 37.8926 62.1709 38.296Z" fill="#46A358"/>
<path d="M36.2907 19.8507C36.0809 20.1617 35.8711 20.4727 35.6572 20.7837C35.4309 21.1199 35.9657 21.4351 36.192 21.1031C36.4018 20.7921 36.6116 20.4811 36.8255 20.1701C37.0477 19.8339 36.5129 19.5187 36.2907 19.8507Z" fill="#46A358"/>
<path d="M34.5295 24.4483C34.4513 24.8308 34.3772 25.2132 34.2991 25.5998C34.2209 25.9949 34.8133 26.1672 34.8956 25.7679C34.9737 25.3855 35.0478 25.0031 35.1259 24.6164C35.2041 24.2214 34.6076 24.0533 34.5295 24.4483Z" fill="#46A358"/>
<path d="M34.3329 22.1579C34.008 22.5992 33.7652 23.0867 33.6007 23.612C33.4773 23.9987 34.0738 24.1626 34.1972 23.7801C34.3494 23.3052 34.5757 22.8766 34.8677 22.4773C35.1063 22.1495 34.5674 21.8385 34.3329 22.1579Z" fill="#46A358"/>
<path d="M33.0778 26.3395C33.0038 26.8648 32.9256 27.3859 32.8516 27.9113C32.794 28.3063 33.3905 28.4786 33.4481 28.0794C33.5221 27.5541 33.6003 27.0329 33.6743 26.5076C33.7319 26.1084 33.1354 25.936 33.0778 26.3395Z" fill="#46A358"/>
<path d="M33.6944 29.3654C33.6409 29.8907 33.6739 30.4077 33.7726 30.9246C33.8466 31.3238 34.4431 31.1557 34.3691 30.7565C34.2827 30.2942 34.2662 29.8319 34.3156 29.3654C34.3485 28.962 33.7314 28.9662 33.6944 29.3654Z" fill="#46A358"/>
<path d="M34.2013 33.358C34.2342 33.6732 34.2712 33.9884 34.3041 34.3036C34.3206 34.4717 34.4317 34.6188 34.6127 34.6188C34.7649 34.6188 34.9418 34.4759 34.9212 34.3036C34.8883 33.9884 34.8513 33.6732 34.8184 33.358C34.8019 33.1899 34.6908 33.0428 34.5098 33.0428C34.3576 33.0428 34.1848 33.1857 34.2013 33.358Z" fill="#46A358"/>
<path d="M33.2008 35.7283C33.4394 36.1275 33.6122 36.5478 33.7192 37.0059C33.8138 37.4009 34.4062 37.2328 34.3156 36.8378C34.1964 36.3335 33.9989 35.8544 33.7356 35.4089C33.5258 35.0643 32.9951 35.3837 33.2008 35.7283Z" fill="#46A358"/>
<path d="M34.5176 38.3802C34.5875 38.5567 34.6533 38.729 34.7232 38.9055C34.785 39.061 34.9289 39.1744 35.1017 39.124C35.2498 39.082 35.3814 38.8971 35.3156 38.7374C35.2457 38.5609 35.1799 38.3886 35.1099 38.212C35.0482 38.0565 34.9043 37.9431 34.7315 37.9935C34.5875 38.0313 34.4558 38.2205 34.5176 38.3802Z" fill="#46A358"/>
</g>
<defs>
<clipPath id="clip0_157_406">
<rect width="68" height="50.5" fill="white" transform="translate(15 39.5517)"/>
</clipPath>
<clipPath id="clip1_157_406">
<rect width="35" height="40.1939" fill="white" transform="translate(31 0.388412)"/>
</clipPath>
</defs>
</svg>
