<svg width="19" height="14" viewBox="0 0 19 14" fill="none" xmlns="http://www.w3.org/2000/svg">
<path d="M3.42188 0.174805C6.22176 -0.0585188 12.4443 -0.0585188 15.2441 0.174805L15.5205 0.201172C18.301 0.522774 18.666 2.3482 18.666 7.01953L18.6611 7.88867C18.6073 12.0676 18.0875 13.7173 15.2441 13.8633C12.4443 14.0188 6.22176 14.0188 3.42188 13.8633C0.578333 13.6445 0.0586839 12.0585 0.00488281 7.8877L0 7.01953C8.20319e-07 2.19762 0.388844 0.408188 3.42188 0.174805ZM14.3408 4.35645C11.7471 4.19535 6.91592 4.19528 4.32324 4.35645C4.32299 4.35901 4.32349 4.36168 4.32324 4.36426C4.26078 4.99701 4.23633 5.84181 4.23633 7.01953C4.23633 8.18913 4.26073 9.02987 4.32227 9.66113C6.97053 9.76641 11.6955 9.76642 14.3438 9.66113C14.4047 9.02356 14.4297 8.18026 14.4297 7.01953C14.4297 5.84181 14.4043 4.99701 14.3418 4.36426C14.3415 4.36164 14.3411 4.35904 14.3408 4.35645ZM7 7.01953C7 5.59024 8.50383 4.6606 9.78223 5.2998C11.1992 6.00841 11.1993 8.03071 9.78223 8.73926C8.50398 9.37821 7.00025 8.44855 7 7.01953Z" fill="#46A358" fill-opacity="0.6"/>
</svg>
