<svg width="21" height="20" viewBox="0 0 21 20" fill="none" xmlns="http://www.w3.org/2000/svg">
<g clip-path="url(#clip0_119_57)">
<path d="M14.794 16.8745H8.74077C6.15655 16.8745 4.05412 14.7721 4.05412 12.1879V7.38404C4.05412 4.98174 2.85676 2.75812 0.851225 1.43578C0.491056 1.19832 0.391621 0.71388 0.629078 0.353711C0.866535 -0.00649689 1.35094 -0.105971 1.71119 0.131564C2.85606 0.886427 3.78487 1.88203 4.44905 3.0283C4.59258 3.1891 5.74995 4.41583 7.64726 4.41583H16.642C19.096 4.36994 21.0168 6.83265 20.3752 9.20136L19.3397 13.3283C18.8159 15.4163 16.9466 16.8745 14.794 16.8745V16.8745ZM5.41926 5.53676C5.54912 6.13669 5.61634 6.75528 5.61634 7.38404V12.1879C5.61634 13.9107 7.01796 15.3123 8.74077 15.3123H14.794C16.2291 15.3123 17.4752 14.3401 17.8245 12.9482L18.8599 8.8212C19.2412 7.41372 18.0997 5.95082 16.642 5.97804H7.64722C6.78913 5.97804 6.04224 5.79304 5.41926 5.53676V5.53676ZM8.35021 19.0226C8.35021 18.4833 7.91307 18.0462 7.37383 18.0462C6.07828 18.0978 6.07942 19.9479 7.37383 19.9989C7.91307 19.9989 8.35021 19.5618 8.35021 19.0226ZM16.1222 19.0226C16.1222 18.4833 15.6851 18.0462 15.1459 18.0462C13.8503 18.0978 13.8514 19.9479 15.1459 19.9989C15.6851 19.9989 16.1222 19.5618 16.1222 19.0226ZM17.4231 8.32137C17.4231 7.88996 17.0734 7.54026 16.642 7.54026H7.95966C6.92329 7.5815 6.92407 9.06158 7.95966 9.10248H16.642C17.0734 9.10248 17.4231 8.75277 17.4231 8.32137Z" fill="#46A358"/>
</g>
<defs>
<clipPath id="clip0_119_57">
<rect width="20" height="20" fill="white" transform="translate(0.5)"/>
</clipPath>
</defs>
</svg>
