<svg width="21" height="21" viewBox="0 0 21 21" fill="none" xmlns="http://www.w3.org/2000/svg">
<g clip-path="url(#clip0_119_65)">
<path d="M14.794 17.3745H8.74077C6.15655 17.3745 4.05412 15.2721 4.05412 12.6879V7.88404C4.05412 5.48174 2.85676 3.25812 0.851225 1.93578C0.491056 1.69832 0.391621 1.21388 0.629078 0.853711C0.866535 0.493503 1.35094 0.394029 1.71119 0.631564C2.85606 1.38643 3.78487 2.38203 4.44905 3.5283C4.59258 3.6891 5.74995 4.91583 7.64726 4.91583H16.642C19.096 4.86994 21.0168 7.33265 20.3752 9.70136L19.3397 13.8283C18.8159 15.9163 16.9466 17.3745 14.794 17.3745V17.3745ZM5.41926 6.03676C5.54912 6.63669 5.61634 7.25528 5.61634 7.88404V12.6879C5.61634 14.4107 7.01796 15.8123 8.74077 15.8123H14.794C16.2291 15.8123 17.4752 14.8401 17.8245 13.4482L18.8599 9.3212C19.2412 7.91372 18.0997 6.45082 16.642 6.47804H7.64722C6.78913 6.47804 6.04224 6.29304 5.41926 6.03676V6.03676ZM8.35021 19.5226C8.35021 18.9833 7.91307 18.5462 7.37383 18.5462C6.07828 18.5978 6.07942 20.4479 7.37383 20.4989C7.91307 20.4989 8.35021 20.0618 8.35021 19.5226ZM16.1222 19.5226C16.1222 18.9833 15.6851 18.5462 15.1459 18.5462C13.8503 18.5978 13.8514 20.4479 15.1459 20.4989C15.6851 20.4989 16.1222 20.0618 16.1222 19.5226ZM17.4231 8.82137C17.4231 8.38996 17.0734 8.04026 16.642 8.04026H7.95966C6.92329 8.0815 6.92407 9.56158 7.95966 9.60248H16.642C17.0734 9.60248 17.4231 9.25277 17.4231 8.82137Z" fill="#3D3D3D"/>
</g>
<defs>
<clipPath id="clip0_119_65">
<rect width="20" height="20" fill="white" transform="translate(0.5 0.5)"/>
</clipPath>
</defs>
</svg>
