<svg width="16" height="16" viewBox="0 0 16 16" fill="none" xmlns="http://www.w3.org/2000/svg">
<path d="M2.66699 7.81714C2.66699 7.56401 2.85509 7.35481 3.09915 7.3217L3.16699 7.31714L13.167 7.31714C13.4431 7.31714 13.667 7.541 13.667 7.81714C13.667 8.07027 13.4789 8.27947 13.2348 8.31257L13.167 8.31714H3.16699C2.89085 8.31714 2.66699 8.09328 2.66699 7.81714Z" fill="#3D3D3D"/>
<path d="M8.781 4.1552C8.58532 3.96036 8.58463 3.64378 8.77948 3.4481C8.9566 3.27021 9.23434 3.25347 9.4304 3.39829L9.48658 3.44658L13.5199 7.46258C13.6983 7.64023 13.7146 7.91898 13.5686 8.11502L13.5199 8.17117L9.48661 12.1878C9.29094 12.3827 8.97436 12.382 8.7795 12.1864C8.60236 12.0085 8.5868 11.7307 8.73244 11.5353L8.78097 11.4793L12.4583 7.81669L8.781 4.1552Z" fill="#3D3D3D"/>
</svg>
