<svg width="92" height="92" viewBox="0 0 92 92" fill="none" xmlns="http://www.w3.org/2000/svg">
<rect width="92" height="92" rx="24" fill="white"/>
<path fill-rule="evenodd" clip-rule="evenodd" d="M67.4513 49.0781V66.3733C67.4513 69.4666 65.027 72.0017 62.0632 72.0017H29.9702C27.0064 72.0017 24.5822 69.4666 24.5822 66.3733V49.0781H41.2482V56.5889L46.0167 59.7224L50.7852 56.5889V49.0781H67.4513Z" fill="url(#paint0_linear_254_3894)"/>
<path fill-rule="evenodd" clip-rule="evenodd" d="M42.9185 49.0781V55.6866L46.0166 57.7222L49.1146 55.6866V49.0781H42.9185Z" fill="url(#paint1_linear_254_3894)"/>
<path fill-rule="evenodd" clip-rule="evenodd" d="M26.0734 29.1445H65.9599C67.8423 29.1445 69.3808 30.8526 69.3808 32.94V43.1931C69.3808 45.2805 67.8423 46.9886 65.9599 46.9886H50.314H41.7194H26.0734C24.191 46.9886 22.6526 45.2805 22.6526 43.1931V32.94C22.6526 30.8526 24.191 29.1445 26.0734 29.1445Z" fill="url(#paint2_linear_254_3894)"/>
<path fill-rule="evenodd" clip-rule="evenodd" d="M37.712 19.9531H54.3215C55.8647 19.9531 57.1275 21.2159 57.1275 22.7591V27.1365H53.57V24.5496C53.57 23.8522 52.9998 23.2797 52.3024 23.2797H39.731C39.0337 23.2797 38.4635 23.8522 38.4635 24.5496V27.1365H34.906V22.7591C34.906 21.2159 36.1688 19.9531 37.712 19.9531Z" fill="url(#paint3_linear_254_3894)"/>
<defs>
<linearGradient id="paint0_linear_254_3894" x1="46.0167" y1="49.0781" x2="46.0167" y2="72.0017" gradientUnits="userSpaceOnUse">
<stop stop-color="#EF8080"/>
<stop offset="1" stop-color="#F0145A"/>
</linearGradient>
<linearGradient id="paint1_linear_254_3894" x1="46.0166" y1="49.0781" x2="46.0166" y2="57.7222" gradientUnits="userSpaceOnUse">
<stop stop-color="#EF8080"/>
<stop offset="1" stop-color="#F0145A"/>
</linearGradient>
<linearGradient id="paint2_linear_254_3894" x1="46.0167" y1="29.1445" x2="46.0167" y2="46.9886" gradientUnits="userSpaceOnUse">
<stop stop-color="#EF8080"/>
<stop offset="1" stop-color="#F0145A"/>
</linearGradient>
<linearGradient id="paint3_linear_254_3894" x1="46.0167" y1="19.9531" x2="46.0167" y2="27.1365" gradientUnits="userSpaceOnUse">
<stop stop-color="#EF8080"/>
<stop offset="1" stop-color="#F0145A"/>
</linearGradient>
</defs>
</svg>
