<svg id="e29a63a4-074c-495a-80ee-2f7c3a363eae" viewBox="0 0 64 64" xmlns="http://www.w3.org/2000/svg" data-name="glyph"><path d="m27.63 52.42413a8.34905 8.34905 0 0 1 -2.06461 2.13787 1.01323 1.01323 0 0 1 -1.4125-.23429l-.01359-.01908a1.01336 1.01336 0 0 1 .26307-1.41255c2.46984-1.79608 3.39597-6.08608 3.15516-8.39878 3.82932.48523 5.62528-1.001 6.4613-2.34279a1.699 1.699 0 0 0 -.80512-2.41519l-4.0459-1.734c-1.3187-.72338-5.70331 1.23291-6.63745 1.56965a1.85047 1.85047 0 0 1 -2.46588-1.72714c0-1.34144 0-6.46875 0-6.46875-.31372.91044-5.95677 12.713-5.72837 13.34536l-1.33141 10.569a.12665.12665 0 0 0 .08259.14452l12.14811 4.56204c3.36046-1.79642 5.35483-5.40767 6.3786-7.58614z"/><path d="m29.48777 6.32931c.53736 1.19793 1.31724 2.3 2.76616 2.281l8.60792.00006c1.44416.02036 2.23231-1.085 2.766-2.28109.06255-.13813 1.188-2.22967 1.22829-2.31192h-16.59662c.04374.06432 1.15502 2.18125 1.22825 2.31195z"/><path d="m47.65321 4.01735h-.46447c-.56874 1.10889-1.63023 3.0795-2.20874 4.18014a4.65332 4.65332 0 0 1 -4.11817 2.4771h-8.608a4.66516 4.66516 0 0 1 -4.11818-2.47713c-.58259-1.083-1.62843-3.09415-2.20876-4.18009a3.4 3.4 0 0 0 -3.79821 3.33379c.00016 7.00649-.00017 23.374 0 30.17937 0 0 5.35417-2.59919 7.85448-1.42429l4.04593 1.74425a3.7558 3.7558 0 0 1 1.94036 5.01614h2.61136a1.03226 1.03226 0 0 1 -.00005 2.06425c.00005 0-4.19581-.0129-4.26265-.0206a7.90646 7.90646 0 0 1 -4.75811 1.72363c-.04133.43348-.11352.898-.20644 1.38308a12.46933 12.46933 0 0 1 -.65024 2.32229l18.94986-.031a3.33891 3.33891 0 0 0 3.34408-3.32342v-39.63375a3.34774 3.34774 0 0 0 -3.34405-3.33376z"/></svg>