<svg width="21" height="21" viewBox="0 0 21 21" fill="none" xmlns="http://www.w3.org/2000/svg">
<g clip-path="url(#clip0_119_61)">
<path d="M15.0697 16.5022C11.0744 19.6858 5.48958 18.8049 2.53138 15.1536C-0.323796 11.6285 -0.145231 6.54312 2.9522 3.32456C6.15265 -0.000763093 11.1843 -0.444681 14.8318 2.28313C16.1386 3.26025 17.1145 4.50335 17.7501 6.00805C18.3894 7.52149 18.5836 9.09611 18.3619 10.7201C18.1409 12.3365 17.4959 13.7769 16.4464 15.1212C16.5313 15.1767 16.6218 15.2167 16.6868 15.2816C17.8406 16.4304 18.99 17.5836 20.1438 18.7324C20.4173 19.0047 20.5534 19.3218 20.4722 19.7039C20.3112 20.4644 19.4058 20.7578 18.8252 20.2359C18.553 19.9918 18.3026 19.7227 18.0441 19.4642C17.0964 18.517 16.1492 17.5693 15.2014 16.6221C15.1621 16.5846 15.1209 16.5497 15.0697 16.5022ZM16.457 9.48634C16.467 5.62656 13.3508 2.50603 9.48233 2.50041C5.62444 2.49479 2.51078 5.59035 2.49392 9.44763C2.47706 13.3168 5.58698 16.446 9.46735 16.4641C13.3096 16.4823 16.447 13.3499 16.457 9.48634Z" fill="#46A358"/>
</g>
<defs>
<clipPath id="clip0_119_61">
<rect width="19.9913" height="20" fill="white" transform="translate(0.503906 0.5)"/>
</clipPath>
</defs>
</svg>
