<svg width="35" height="35" viewBox="0 0 35 35" fill="none" xmlns="http://www.w3.org/2000/svg">
<rect x="0.5" y="0.5" width="34" height="34" rx="3.5" fill="#E3E3E3" stroke="#E5E5E5"/>
<path d="M15.592 22.154L18.832 18.824C19.984 17.618 20.578 16.97 21.01 15.98C21.244 15.494 21.352 14.972 21.352 14.414C21.352 12.47 19.858 10.94 17.752 10.94C15.538 10.94 14.116 12.704 14.116 14.486C14.116 14.882 14.152 15.242 14.242 15.566H15.214C15.124 15.188 15.088 14.828 15.088 14.522C15.088 13.136 16.132 11.804 17.77 11.804C19.39 11.804 20.362 13.064 20.362 14.468C20.362 15.71 19.66 16.7 18.166 18.266L13.864 22.73V23H21.91V22.154H15.592Z" fill="#3D3D3D"/>
</svg>
